<svg width="1104" height="597" viewBox="0 0 1104 597" fill="none" xmlns="http://www.w3.org/2000/svg">
<path d="M6 344V16.7965C6 10.9722 10.9577 6.38031 16.7649 6.8258L1088.31 89.0262C1094.77 89.522 1099.06 95.9409 1097.05 102.102L939.613 584.001C938.103 588.624 933.485 591.49 928.672 590.792L413 516" stroke="#FFC300" stroke-width="12" stroke-linecap="round"/>
<path d="M50 59.5461V414.257C50 421.606 55.3234 427.872 62.575 429.06L915.07 568.718C922.896 570 930.368 564.968 932.123 557.234L1023.24 155.584C1025.24 146.78 1019.06 138.22 1010.08 137.337L66.4668 44.618C57.6453 43.7512 50 50.6821 50 59.5461Z" fill="white"/>
</svg>
