<?xml version="1.0" encoding="utf-8"?>
<!-- Generator: Adobe Illustrator 26.0.3, SVG Export Plug-In . SVG Version: 6.00 Build 0)  -->
<svg version="1.1" id="Layer_1" xmlns="http://www.w3.org/2000/svg" xmlns:xlink="http://www.w3.org/1999/xlink" x="0px" y="0px"
	 viewBox="0 0 1150 1260" style="enable-background:new 0 0 1150 1260;" xml:space="preserve">
<style type="text/css">
	.st0{fill:#ECE4F3;}
	.st1{fill:#D9C9E8;}
	.st2{fill:#F2E6FD;}
	.st3{fill:#B393D1;}
	.st4{opacity:0.95;fill:url(#SVGID_1_);enable-background:new    ;}
	.st5{fill:#540C97;}
	.st6{fill:#FFFFFF;}
	.st7{fill:#D9D9D9;}
	.st8{fill:#F94B15;}
	.st9{fill:#FFDE71;}
	.st10{fill:#FFC300;}
	.st11{fill:#FFFBEF;}
	.st12{fill:#FFECD8;}
	.st13{fill:#240303;}
	.st14{fill:none;stroke:#F0AB61;stroke-linecap:round;}
	.st15{fill:#440C78;}
	.st16{fill:none;stroke:#A56BDA;stroke-linecap:round;}
	.st17{fill:none;stroke:#7C40B5;stroke-linecap:round;}
	.st18{fill:#C48EF6;}
	.st19{fill:none;stroke:#DFBCFF;stroke-linecap:round;}
	.st20{fill:#B277E9;}
	.st21{fill:none;stroke:#D1760B;stroke-linecap:round;}
	.st22{fill:none;stroke:#D1520B;stroke-width:2;}
	.st23{fill:none;stroke:#F8F2FE;stroke-width:1.5;stroke-linecap:round;}
	.st24{fill:#DEC0FA;}
	.st25{fill:none;stroke:#F8F2FE;stroke-linecap:round;}
	.st26{fill:#CB9BF7;}
	.st27{fill:#8D5DBA;}
	.st28{fill:#CE4115;}
	.st29{fill:#AF310A;}
	.st30{fill:none;stroke:#FFC300;stroke-width:2;stroke-linecap:round;stroke-dasharray:4,4;}
	.st31{clip-path:url(#SVGID_00000164485068112762576050000005186572956173626300_);}
	.st32{fill:#FFF2C6;}
	.st33{fill:#FFE48E;}
	.st34{fill:#FFD039;}
	.st35{fill:#FA7349;}
	.st36{fill:#FA5F2F;}
	.st37{fill:#E5CDFB;}
</style>
<path class="st0" d="M910.6,1137.4l18-9l-182.5-59l-157.5,40l-56,65.5c-4.5,7.5,61.5-23.5,103.5-33.5c49.7-11.8,90.5-13,161.5-4
	c56.8,7.2,89,5.7,98,4L910.6,1137.4z"/>
<path class="st1" d="M697.1,1115.9c27,0,110.2,7,152,13l-97.5-30l-112-7l-76,28l-166.5,111l-88,11.5c28.7,10.2,86.4,20.7,116,17.5
	c37-4,70-36.5,112.5-79.5C580.5,1137.1,655.9,1115.9,697.1,1115.9z"/>
<path class="st1" d="M973.6,814.4c-7.6,30.4,15.2,88,27.5,113l-58-55l-32.5-99.5l164-220.5c3.3,12.2,8.3,46.5,11.5,66.5
	c4,25-5.5,55.5-45,98S983.1,776.4,973.6,814.4z"/>
<path class="st2" d="M476.6,215.9c22.4,21.6,87.3,13,117,6c-25.3,11.3-84.2,33.4-117,31c-41-3-69-76-74-94c-4-14.4-41.7-74.7-60-103
	L197.5,269.1l87.9-242.9c7.2-19.9,30.2-29,49-19.2c0.2,0.1,0.3,0.2,0.5,0.3c16.8,8.9,50.8,34.6,70.8,85.6
	C421.1,132.4,431,171.9,476.6,215.9z"/>
<path class="st3" d="M579.3,226.2c-40.8,9.9-82.3,31.2-120.2,9.6c-53.8-30.8-40.2-51.9-112-138c-45.4-54.5-86.2,96.7-158.5,193.1
	l99.6-234.2c10.3-24.2,41.4-31.5,61.1-14.1c9.2,8.1,18.3,18.1,26.3,30.2c14.4,21.9,60.5,154.4,114,158
	C527.7,233.4,560.4,229.2,579.3,226.2z"/>
<linearGradient id="SVGID_1_" gradientUnits="userSpaceOnUse" x1="421.4403" y1="766.9776" x2="995.2858" y2="351.7236">
	<stop  offset="0" style="stop-color:#540C97"/>
	<stop  offset="1" style="stop-color:#F94B15;stop-opacity:0.9"/>
</linearGradient>
<path class="st4" d="M1069.1,593.8c-24.5,92.8-170,128.1-98,241.7c60.5,95.4,97.8,239-10,292.3c-93,46.1-225-42.9-337-14.9
	s-157,136.9-277,134.9s-95-216.9-172.9-303.4c-0.9-1.1-1.8-2.1-2.7-3.2c-15.3-18-27.9-38.2-37.1-60c-24-56.6-56.5-121.1-85.7-196.3
	c-58.2-150.1-59.2-146-4.8-228.1c9.1-13.8,17.6-27.5,25.4-40.9c16.6-28.5,39.4-52.9,66.5-71.8c6-4.2,12.4-9.3,19.3-15.6
	c11.9-10.9,23-23.7,33.4-37.6c72.3-96.4,113.1-247.6,158.5-193.1c71.8,86.1,58.2,107.2,112,138c37.8,21.6,79.3,0.3,120.2-9.6
	c19.6-4.8,39-6.9,57.8-0.4c76.5,26.4,77.6,79.9,112,112c66,61.7,203,71.1,244,86C1056.6,446.9,1092.1,506.9,1069.1,593.8z"/>
<g>
	<path class="st5" d="M1040.3,542.9h-264c-5,0-9.2,3.7-9.9,8.6l-80.2,565c-0.9,6,3.8,11.4,9.9,11.4h273.7c5,0,9.3-3.8,9.9-8.8
		l70.5-565C1051,548.1,1046.3,542.9,1040.3,542.9z"/>
</g>
<path class="st6" d="M1013.6,557.9H785.2c-7.5,0-13.8,5.5-14.9,12.9l-71.3,505c-1.3,9,5.7,17.1,14.9,17.1h237
	c7.6,0,14-5.6,14.9-13.2l62.7-505C1029.6,565.8,1022.7,557.9,1013.6,557.9z"/>
<path d="M779.7,678.5l0.8-4.5h7.8l-3.5,19.9h-5l2.7-15.4H779.7z M790.7,694.1c-0.7,0-1.3-0.2-1.8-0.6c-0.4-0.4-0.6-0.9-0.6-1.5
	c0-0.9,0.3-1.6,1-2.2c0.7-0.6,1.5-0.9,2.4-0.9c0.7,0,1.3,0.2,1.7,0.6c0.4,0.4,0.6,0.9,0.6,1.5c0,0.8-0.3,1.6-1,2.2
	C792.4,693.8,791.6,694.1,790.7,694.1z"/>
<rect x="813.6" y="735.9" class="st7" width="170" height="10"/>
<rect x="813.6" y="753.9" class="st7" width="140" height="10"/>
<rect x="813.6" y="797.9" class="st7" width="170" height="10"/>
<rect x="813.6" y="815.9" class="st7" width="140" height="10"/>
<rect x="813.6" y="859.9" class="st7" width="170" height="10"/>
<rect x="813.6" y="877.9" class="st7" width="140" height="10"/>
<rect x="813.6" y="921.9" class="st7" width="140" height="10"/>
<rect x="813.6" y="939.9" class="st7" width="63" height="10"/>
<path class="st7" d="M785.1,999.9h111c10.2,0,18.5,8.3,18.5,18.5l0,0c0,10.2-8.3,18.5-18.5,18.5h-111c-10.2,0-18.5-8.3-18.5-18.5
	l0,0C766.6,1008.2,774.9,999.9,785.1,999.9z"/>
<g>
	<path class="st8" d="M945.4,858.5l-22.9-2.5c-11.6-1.3-19.7-12.1-16.6-23.3c9.7-35.1,25.5-59,45.5-75.1
		c29.8-23.9,89.8-16.3,125.3,8.7c37.7,26.6,50.7,70,40.5,107.1c-20.5,75.4-95.2,88.1-113.6,118.3c-10.1,16.5-13.7,40.7-14.7,61
		c-0.6,12.6-11.8,22.5-24.3,20.4l-20.8-3.4c-10.7-1.8-18.5-11.8-18.5-22.7c0.2-23.8,0-57.4,16.5-79.1
		c27.1-35.8,102.6-73.2,110.4-107.6c7.8-34.4-6.6-50-40-56.7c-20.8-4.2-35.9,19.6-44.1,40.4C964.4,853.2,955.3,859.6,945.4,858.5z"
		/>
</g>
<path class="st9" d="M854.4,706.2L665.5,703c-3.9-0.1-7.3,2.7-8,6.6l-56.2,323.9c-0.8,4.9,2.9,9.4,7.9,9.4h192.7
	c3.9,0,7.3-2.8,7.9-6.7l52.4-320.7C862.9,710.7,859.2,706.3,854.4,706.2z"/>
<path class="st10" d="M755.5,662.8L641.2,661c-3.9-0.1-7.3,2.7-8,6.6l-34.6,187.9c-0.9,4.9,2.9,9.4,7.9,9.4h116.7
	c3.9,0,7.2-2.8,7.9-6.6l32.3-186.1C764.1,667.3,760.4,662.9,755.5,662.8z"/>
<g>
	<circle class="st8" cx="951.1" cy="1121.2" r="30"/>
</g>
<path d="M815,595.2l-1.2,6.5h-13.7l-1.2,7.2h10.3l-1.2,6.2h-10.3l-2.4,13.7h-8.2l6-33.7H815z M835.4,622.9h-12.6l-3.1,6h-8.6
	l18.1-33.7h9.5l6.2,33.7h-8.7L835.4,622.9z M834.5,616.7l-2-12.5l-6.4,12.5H834.5z M884.8,608.7c0,3.7-0.8,7.1-2.3,10.2
	c-1.5,3-3.7,5.4-6.4,7.2l5.6,8.6h-9.9l-3.2-5.7c-1.2,0.2-2.4,0.3-3.7,0.3c-2.8,0-5.4-0.6-7.5-1.8c-2.1-1.2-3.8-2.8-5-5
	c-1.2-2.1-1.8-4.6-1.8-7.4c0-3.9,0.8-7.4,2.5-10.5c1.7-3.1,4-5.5,7.1-7.2c3-1.7,6.5-2.6,10.3-2.6c2.9,0,5.4,0.6,7.6,1.8
	c2.2,1.2,3.9,2.8,5,4.9C884.2,603.5,884.8,606,884.8,608.7z M858.7,614.2c0,2.3,0.6,4.1,1.9,5.5c1.3,1.3,3.1,2,5.4,2
	c2.1,0,4-0.5,5.6-1.6c1.6-1.1,2.8-2.5,3.7-4.4c0.9-1.9,1.3-3.9,1.3-6c0-2.3-0.6-4.1-1.9-5.4c-1.3-1.3-3.1-2-5.4-2
	c-2.1,0-4,0.5-5.6,1.6c-1.6,1.1-2.8,2.5-3.7,4.4C859.2,610,858.7,612,858.7,614.2z"/>
<rect x="909.6" y="599.9" class="st7" width="90" height="10"/>
<rect x="813.6" y="673.9" class="st7" width="170" height="10"/>
<path class="st11" d="M676.7,736.9l97.4,3l-1.8,7.3l-97.4-3L676.7,736.9z"/>
<path class="st11" d="M670.4,767.8l120.5,4.4l-1.9,7.3L668.5,775L670.4,767.8z"/>
<path class="st11" d="M667.9,784.2l120.5,4.4l-1.9,7.3L666,791.4L667.9,784.2z"/>
<path class="st11" d="M660.5,829.6L781,834l-1.9,7.3l-120.5-4.4L660.5,829.6z"/>
<path class="st11" d="M658,846l120.5,4.4l-1.9,7.3l-120.5-4.4L658,846z"/>
<path class="st11" d="M653.9,875l120.5,4.4l-1.9,7.3L652,882.3L653.9,875z"/>
<path class="st11" d="M651.4,891.5l120.5,4.4l-1.9,7.3l-120.5-4.4L651.4,891.5z"/>
<path class="st11" d="M665.4,800.5l120.5,4.4l-1.9,7.3l-120.5-4.4L665.4,800.5z"/>
<path class="st11" d="M646.4,921.4l120.5,4.4l-1.9,7.3l-120.5-4.4L646.4,921.4z"/>
<path class="st11" d="M644,937.8l120.5,4.4l-1.9,7.3l-120.5-4.4L644,937.8z"/>
<path class="st11" d="M641.5,954.2l120.5,4.4l-1.9,7.3l-120.5-4.4L641.5,954.2z"/>
<rect x="813.6" y="691.9" class="st7" width="140" height="10"/>
<rect x="909.6" y="618.9" class="st7" width="70" height="10"/>
<path class="st12" d="M593.6,1225.3l0.8-9.9l19.4-3.5v13.4l0.8,21.9c-3.8,0.9-11.8,4.1-13.7,3.5c-2.4-0.7-6.5-2.8-6.5-5v-8.5
	L593.6,1225.3z"/>
<path class="st12" d="M508.6,1222.3l0.8-9.9l18.5-3.5v13.4l0.8,21.9c-3.6,0.9-11.2,4.1-13.1,3.5c-2.3-0.7-6.2-2.8-6.2-5v-8.5
	L508.6,1222.3z"/>
<path class="st13" d="M592.7,1241.5c0.6-1.7,0-3.6,2.4-3.6c2.4,2.4,7.8,7.2,10.4,7.2c3.2,0,7.2-0.7,8.8-2.2c1.6-1.4,4.8-2.2,10.4,0
	c4.4,1.7,17.5,4.3,21.5,7.2c4,2.9-0.8,7.2-5.6,7.2h-25.5c-4,0-19.9,1.4-21.5-0.7c-1.6-2.2-0.8-1.4-1.6-4.3
	C591.1,1249.4,591.9,1243.7,592.7,1241.5z"/>
<path class="st13" d="M506.7,1238.3c0.6-1.6,0-3.4,2.4-3.4c2.4,2.3,7.8,6.9,10.4,6.9c3.2,0,7.2-0.7,8.8-2.1c1.6-1.4,4.8-2.1,10.4,0
	c4.4,1.6,17.5,4.1,21.5,6.9c4,2.8-0.8,6.9-5.6,6.9h-25.5c-4,0-19.9,1.4-21.5-0.7c-1.6-2.1-0.8-1.4-1.6-4.1
	C505.1,1245.9,505.9,1240.4,506.7,1238.3z"/>
<path class="st12" d="M681.1,817.9c-0.2,3.2-3.9,6-7.1,9.6l-13.6,14.8l14.6,7.1c3.4-4.1,9.1-13.7,11.5-16.2
	c8.1-8.8,11.5-9.4,14.9-13.7c3.4-4.3-0.3-8-2.2-10.2c-1.5-1.7-4.7-3-5.8-3.4c4.4-4.9,10.9-11.4,9.2-12.7c-1.4-1-14.9,11.4-18.8,14.4
	C680.8,809.8,681.4,812.8,681.1,817.9z"/>
<path class="st14" d="M675.1,835.4c3.3-7.8,10.5-24,13-20.5c0.7,0.9,0,4.5-2.5,5.5c-4,1.6-4-8,0-11c5.5-4.1,8.5-6.5,13-16"/>
<path class="st5" d="M509.6,1024.9c-2-21,4-36.2,7.5-44.5l75-6c7.5,36.3,24.8,113.9,26.1,123c1.3,9.1,2.1,88.9,2.4,129.5h-26.4
	c-4.8-29.2-13.6-91.8-13.6-102.6s-16.8-52.6-24.8-75l-20.8,177.6H508c0.3-7.8,0-17,0-55.9C508,1117.2,512.4,1054.2,509.6,1024.9z"/>
<path class="st15" d="M540,985.2c0.5-0.2,1-0.2,1.6-0.3L540,985.2c-3.4,1-5.6,4.5-6.9,11.7c-2,10.5-0.9,21,2.5,27.5
	c7.5,14.5,15.7,18.8,20.5,25l-3.5,28l-11-16c-8.5-15-28-18.5-30.5-26c-1.6-4.9-3.5-30,2.5-45.5L540,985.2z"/>
<path class="st16" d="M567.1,990.4c-7,44.5,43.5,102.5,39,127.5c-2.7,15.3,4.5,93.5,4.5,96.5s-2.8,6.4-4.5,4
	c-2.5-3.5,5.4-3.5,11-3.5c4.5,0,6.9-1,7,0.5c0.3,3.3,1.6,9.1,0,9.5c-2,0.5-33.1,1.5-33.5-0.5c-0.5-2.5-1.2-7-0.5-8
	c0.8-1.2,6.8-0.5,10.5-0.5"/>
<path class="st17" d="M562.6,1002.9c3,2.5,9.5,0,9.5-3s-2-6.7-8.5-6c-4.5,0.5-20.5,5.5-20.5,18.5c0,13,1.5,38-6,54
	s-14,36.5-13.5,53.5s2.7,89.5,2,93.5c-1,5.5-5.5,5-5.5,2c0-4.4,19.5-4.5,21-2v11h-38v-10.5h11"/>
<path class="st18" d="M567.5,864.8c-2.5,0.6-23.4-2.1-33.5-3.5L511,891.5c-1.1,3-3.5,11-4.8,18.3l0,0.1c-1.6,9.2-5.1,29.1-2.4,47
	c0.3,2.3,7.8,13.6,11.3,19l-2.5,14h6.4h15.1h8h5.6h16.7h6.4l25.5-1.4c-6.6-28.6-5.6-48.9,1.4-59.6c8.5-13,0.9-19.3,4.5-28
	c7.3-17.2,11.3-23.9,6.5-29.5c-2.2-2.6-17.1-8-28-11.5C577.4,861.3,570.1,864.2,567.5,864.8z"/>
<path class="st19" d="M569.6,972.9c-3.3-3.7-9.4-13.7-7-24.5c3-13.5,12.5-28.3,12.5-35.5c0-4.5-7.5,0-5.5,4c2,4,9.9-0.3,11.5-4
	c4-9,0-21,5.5-31c6.3-11.5,10.1-6.4,8.5-4c-2,3-7-0.3-6-4.5c1.5-6.5,8.5-12,14-14"/>
<path class="st20" d="M518.6,960.9c0.4-4.8-1.2-26.7-2-37c-0.3,6-1.5,16.7-1.5,17.5c0,1,0.5,6.2-2,14.5c-0.5,1.5-3.3,8.5-4.5,10
	l6.5,10C516.1,972.9,518.2,965.7,518.6,960.9z"/>
<path class="st12" d="M593.6,803.9c-0.8-2.8-4.4-0.9-8.1-3l-10.5,9.9l-19.4,31.8c0.5,6.8,2.6,20.8,6.5,21.9c4.8,1.4,10,1.5,19-4
	c1-0.6-5.3-3-6.9-4.4c-1.3-1.1-0.5-5.6,0-7.8c0.8,0.5,3.4,1.6,7.3,2.1c4.8,0.7,10.5-2.8,12.9-9.9
	C596.8,833.4,594.4,806.6,593.6,803.9z"/>
<path class="st10" d="M579.8,790.6c7.4,2,13.6,9.8,14.4,13.3c0.3,1.3,0.8,3.5,0,4.2c-0.5,0.4-2.4,2.1-8,3.5c-4,1.4,0,3.5-0.8,11.9
	c-0.8,8.4-16,7-16,12.6c0,5.6-7,3.3-3.2,14c4,11.2-8,13.3-1.6,25.3c2.9,5.4-4.4,51.8-18,62.3c-9.6,7.4-39.6,10.5-50,0
	c-7.8-7.9-13.4-21.6-7-31c13.5-20-0.3-31.7,7-42c10.5-14.6,21-18.4,27-26c7.8-9.8,20.2-10.4,17.8-23c-2.4-12.6,3.1-16.8,9.5-21.7
	l0.1-0.1C558.7,788.1,569.4,787.7,579.8,790.6z"/>
<path class="st21" d="M596.1,803.9c2-2.5,1.5-7.5-1-9.5c-7-5.5-17.9-5.7-20,5c-1.5,7.5,2.5,16.2-5.5,17.5c-6,1-11.5-3.5-13.5,4
	c-2,7.5,0,32-7,42.5s-20.9,13.2-28.5,16c-5.5,2-16.8,8.8-9,20.5c6,9,15.2,11,10,21c-6,11.5-28.5,7.9-28.5,16.5c0,7.5,6,6.5,7.5,5.5"
	/>
<path class="st18" d="M621.6,878.9l-16-9.5l-18,21.3c9.9,8.4,29.5,20.7,34,20.7c4.5,0,37.8-35.3,61-67l-16-9.5L621.6,878.9z"/>
<path class="st22" d="M833.6,690.1L653.3,687c-4-0.1-7.4,2.8-8,6.7l-53.8,315.9c-0.8,4.9,2.9,9.3,7.9,9.3h184c3.9,0,7.3-2.8,7.9-6.7
	l50.2-312.7C842.2,694.6,838.5,690.2,833.6,690.1z"/>
<path class="st20" d="M580.6,989.4c-10,0.8-18.7,0.8-20.5,0.5c2.2-2.5,10-9.3,14-14.5c5-6.5,8.5-23.5,11-29c2-4.4,4.8-28.2,6-39.5
	c1,6.7,8.2,15.4,3.5,28c-6.5,17.5,2.5,53,2,54S593.1,988.4,580.6,989.4z"/>
<ellipse class="st2" cx="1074.9" cy="1182.9" rx="34" ry="9"/>
<path class="st18" d="M1107.9,1087.5c1.7,7.7-2.7,28.9-6.2,38.8l-32.8,11.8c-11.2-4.7-34.9-16.3-39.8-25.4c-6.2-11.4-5.7-33.5-8-40
	c-2.3-6.5-20.3-14.5-24.4-23.7c-5.3-11.7-0.7-30-3.6-36.4c-5.6-12.6-12-19.8-13.5-28.6c-1.8-10.9,7.2-18.3,17.6-18.9
	c8.9-0.5,18.3,3.9,27.3,14.2c9,10.4,8.9,21.9,11.9,27.1c2.9,5.2,22.9,13.7,29.3,19.8c6.4,6.1,6.5,23.8,10.1,30.9
	C1079.4,1064.2,1103,1065.1,1107.9,1087.5z"/>
<path class="st23" d="M1070.7,1126.8c-0.4-3.7-1.5-9.3-3.2-15.6 M998,982.5c1.7,6,3.4,9.8,7.5,16.8 M1026.3,999.9
	c-1,2.4-3,9.1-3.3,16.2c-0.3,7.1,0.3,9.9,0.7,10.4 M1023.6,1026.5c-4.7-6.5-8.5-11.7-10.3-14.5c-0.1-0.2-0.2-0.4-0.4-0.6
	 M1023.6,1026.5c3.3,4.5,7,9.7,10.8,15.2 M1010,980.8c-0.5,1.3-1.8,4.7-2.7,8.4c-0.8,3.6-1.6,8.3-1.9,10.1 M1005.5,999.3
	c1.9,3.2,4.3,7.1,7.5,12.2 M1008.3,1033.5c3.9,0.3,7.5,0.9,12.3,2.9c3.1,1.3,10.5,4.1,13.8,5.3 M1034.4,1041.8
	c5.4,7.8,10.9,16.3,15.6,24.5 M1054.6,1024.6c-1.7,2.3-5.4,9-6.1,17.3c-0.7,8.4,0.7,19.8,1.4,24.4 M1050,1066.3
	c2.3,4,4.4,8,6.2,11.8c1.8,3.9,3.5,8.2,5.1,12.7 M1023.9,1069c7.8,1.9,13.4,3.2,21.8,8.3c4,2.4,12.1,10,15.6,13.5 M1061.3,1090.9
	c2.4,6.8,4.6,14,6.2,20.3 M1080.7,1076.8c-1.3,1.5-4.6,6.6-7.2,14.6c-2.6,8.1-5.1,16.6-6.1,19.8 M996.3,1006.9
	c1.8,0.2,6.7,1.5,8.1,1.9c1.4,0.3,6.3,2,8.6,2.8"/>
<path class="st24" d="M1078.2,1110.8c4.5,4.8-1.3,15.3-4.8,20c-4.8,1-16.5,2.8-24.8,1.8c-10.4-1.2-15.6-1.2-19.2-6.7
	c-4.8-7.3-2.3-8.2-5.6-15.8c-2.4-5.5-13.6-5.5-16.8-12.1c-1.8-3.8,0-10.3-1.6-16.3c-0.8-3-6.9-9.2-8-10.9c-2.4-3.6-1.6-6.7-0.8-8.5
	c0.8-1.8,4-5.4,11.2-5.4c6.4,0,12.8,4.2,16,6.7c3.2,2.4,5.6,9.1,8.8,12.1c3.2,3,11.2,3.6,16,6.7c4.8,3,7.2,13.3,9.6,16.4
	C1060.6,1101.7,1072.6,1104.7,1078.2,1110.8z"/>
<path class="st25" d="M1070.9,1129.9c-1.8-1.2-4.2-2.9-6.8-4.8 M1006.5,1065.9c1.5,1.1,5.1,3.9,8.1,7 M1034.2,1082
	c-0.8,1-2.4,3.7-2.4,6.6s0.7,5.6,1.1,6.6 M1032.8,1095.2c2.5,3.2,4.9,6.3,7.1,9c0.6,0.8,1.3,1.6,2.1,2.4 M1032.8,1095.2
	c-2.4-3-4.8-6.1-7-9 M1050.5,1095.8c-0.8,2.2-2.3,7.4-1.6,10.8c0.7,3.3,2.2,7.4,2.9,9 M1051.8,1115.5c4.1,3.4,8.5,6.8,12.3,9.6
	 M1051.8,1115.5c-3.7-3.1-7.2-6.2-9.8-9 M1032.8,1122.7c2.4-0.4,9-0.9,16.9,0c7.8,1,12.9,2,14.4,2.4 M1014.6,1099.4
	c2.7,0,9.3,0.3,13.9,1.8c4.6,1.4,10.9,4.2,13.5,5.4 M1008.9,1082c1.1,0,3.9,0.1,6.5,0.6c2.6,0.5,8,2.6,10.3,3.6 M1025.8,1086.2
	c-4.4-5.7-8.4-10.5-10.3-12.6c-0.3-0.3-0.5-0.6-0.8-0.8 M1004.9,1070.7c0.8,0,2.9,0.1,4.9,0.6c2,0.5,4.1,1.2,4.9,1.6"/>
<path class="st24" d="M1053.8,1071.3c-5.3,7.6,1.6,24,5.7,31.3c5.7,1.6,19.4,4.4,29.2,2.8c12.3-1.9,18.4-2,22.6-10.4
	c5.7-11.4,2.7-12.8,6.6-24.7c2.8-8.5,16-8.5,19.8-19c2.2-6,0-16.1,1.9-25.6c0.9-4.7,8.1-14.4,9.4-17.1c2.8-5.7,1.9-10.4,0.9-13.3
	c-0.9-2.8-4.7-8.5-13.2-8.5c-7.6,0-15.1,6.6-18.9,10.4c-3.8,3.8-6.6,14.2-10.4,19c-3.8,4.8-13.2,5.7-18.8,10.4
	c-5.7,4.7-8.5,20.9-11.3,25.6C1074.5,1057.1,1060.4,1061.8,1053.8,1071.3z"/>
<path class="st25" d="M1062.9,1101.9c2.1-1.9,4.8-4.6,7.9-7.6 M1138,1000.9c-1.7,1.7-5.9,6.2-9.5,11 M1105.6,1026.4
	c0.9,1.6,2.9,5.8,2.9,10.4s-0.8,8.8-1.2,10.4 M1107.2,1047.1c-2.9,5-5.7,9.9-8.3,14.2c-0.7,1.2-1.5,2.5-2.4,3.8 M1107.2,1047.1
	c2.7-4.7,5.5-9.6,8.2-14.2 M1086.6,1048.1c1,3.5,2.7,11.7,1.9,17c-0.8,5.3-2.6,11.6-3.4,14.2 M1085.1,1079.2
	c-4.8,5.4-9.9,10.7-14.4,15.1 M1085.1,1079.2c4.3-4.8,8.4-9.8,11.4-14.2 M1107.2,1090.5c-2.8-0.6-10.5-1.5-19.7,0s-15,3.1-16.8,3.8
	 M1128.5,1053.7c-3.2,0-10.8,0.6-16.2,2.8c-5.3,2.3-12.7,6.6-15.7,8.5 M1135.1,1026.4c-1.3,0-4.6,0.2-7.6,0.9
	c-3,0.8-9.3,4.1-12.1,5.7 M1115.4,1033c5.2-8.9,9.8-16.6,12.1-19.8c0.3-0.4,0.6-0.9,1-1.3 M1139.9,1008.4c-1,0-3.4,0.2-5.7,1
	c-2.3,0.8-4.8,2-5.7,2.5"/>
<path class="st26" d="M1052.1,1103.6c0.9,6.7,10.4,22.3,16,29.3h29.6c7.6-7,23.1-23.1,24.5-31.8c1.7-10.9-5.1-28.5-5.1-34.3
	c0-5.9,12-17.5,12.7-26c0.8-10.9-8-24.3-7.6-30.2c0.8-11.7,3.9-19.3,2.5-26.8c-1.7-9.2-11-12.6-19.4-10.1
	c-7.3,2.2-13.5,8.4-17.7,19.3c-4.2,10.9-0.8,20.1-1.7,25.1c-0.8,5-14.4,17.6-17.7,24.3s1.7,20.9,0.8,27.7
	C1068.2,1076.7,1049.6,1084.3,1052.1,1103.6z"/>
<path class="st23" d="M1072.9,1122.9c1.9-2.7,4.3-6.8,6.8-11.8 M1106.8,989.9c-2.2,4.8-3.3,8.2-4.6,15 M1115.9,1016.6
	c-2.1,1.1-7.3,4.2-11.6,8.7c-4.3,4.4-5.5,6.6-5.5,7.1 M1098.8,1032.4c0.6-6.8,1-12.2,1.4-15c0.8-5.3,1.4-9.4,2-12.6 M1098.8,1032.4
	c-0.4,4.7-0.9,10.1-1.5,15.7 M1115.9,995.4c-1.1,0.5-4,2-6.6,3.9c-2.6,1.9-5.8,4.5-7.1,5.5 M1084.5,1028.4c2.5,2.4,4.6,4.7,6.6,8.7
	c1.3,2.5,4.7,8.4,6.2,11 M1097.3,1048.1c-0.9,8-2,16.5-3.6,24.4 M1120.9,1048.1c-2.5,0.5-8.8,2.8-14.1,7.9
	c-5.3,5-10.9,13.1-13.1,16.5 M1093.7,1072.5c-0.8,3.9-1.6,7.6-2.6,11c-1,3.5-2.3,7.3-3.8,11 M1074.5,1059.9
	c4.1,5.5,7.2,9.4,9.9,17.3c1.3,3.8,2.4,13.1,2.8,17.3 M1087.2,1094.5c-2.3,5.7-5,11.5-7.5,16.5 M1108.5,1096.1
	c-1.8,0.3-6.9,1.7-13.2,5.5c-6.4,3.8-13,7.9-15.5,9.4"/>
<path class="st24" d="M1077.2,1106.5c-3.7,5.3,1.1,17,4,22.1c4,1.1,13.7,3.1,20.7,2c8.7-1.3,13-1.4,16-7.4c4-8,1.9-9.1,4.7-17.4
	c2-6,11.3-6,14-13.4c1.5-4.2,0-11.4,1.3-18.1c0.7-3.3,5.7-10.2,6.7-12c2-4,1.3-7.4,0.7-9.4c-0.7-2-3.3-6-9.3-6
	c-5.4,0-10.7,4.7-13.3,7.4c-2.7,2.7-4.7,10.1-7.3,13.4c-2.7,3.3-9.3,4-13.3,7.4c-4,3.3-6,14.7-8,18.1
	C1091.9,1096.4,1081.9,1099.8,1077.2,1106.5z"/>
<path class="st25" d="M1083.9,1127.9c1.5-1.4,3.4-3.2,5.5-5.3 M1136.5,1056.9c-1.2,1.2-4.1,4.3-6.7,7.7 M1113.9,1074.8
	c0.7,1.1,2,4.1,2,7.3c0,3.2-0.6,6.2-0.9,7.3 M1115,1089.4c-2,3.5-4,7-5.8,10c-0.5,0.8-1.1,1.7-1.7,2.7 M1115,1089.4
	c1.9-3.3,3.9-6.8,5.7-9.9 M1100.5,1090.1c0.7,2.4,1.9,8.2,1.3,11.9c-0.5,3.7-1.8,8.2-2.4,9.9 M1099.5,1111.9
	c-3.4,3.8-7,7.5-10.1,10.6 M1099.5,1111.9c3-3.4,5.9-6.8,8-9.9 M1115,1119.9c-1.9-0.5-7.4-1.1-13.8,0c-6.4,1.1-10.5,2.2-11.8,2.6
	 M1129.9,1094c-2.2,0-7.6,0.4-11.3,2c-3.7,1.6-8.9,4.6-11,6 M1134.5,1074.8c-0.9,0-3.2,0.1-5.3,0.7c-2.1,0.5-6.5,2.9-8.5,4
	 M1120.7,1079.4c3.6-6.3,6.8-11.7,8.5-13.9c0.2-0.3,0.4-0.6,0.7-0.9 M1137.9,1062.2c-0.7,0-2.4,0.1-4,0.7s-3.3,1.4-4,1.8"/>
<path class="st27" d="M1044.9,1132.8c-0.5-3.1,1.8-5.9,4.9-5.9h50.1c3.1,0,5.5,2.8,4.9,5.9l-8.2,46c-0.4,2.4-2.5,4.1-4.9,4.1h-33.6
	c-2.4,0-4.5-1.7-4.9-4.1L1044.9,1132.8z"/>
<path class="st28" d="M925.7,1222l2-25.2l44.6-3.6l-36.7,17.1L925.7,1222z"/>
<path class="st29" d="M939.7,1219.1l-14.5,3.3l9.9-11.6L939.7,1219.1z"/>
<path class="st8" d="M991.1,1183.9l-82.2,4.5l18.3,12l37-4.6l-29,14.8l8.8,18.8L991.1,1183.9z"/>
<path class="st30" d="M681.9,720.9c-44-31.3-127.4-105.6-109-152c23-58,197.1-79.2,217.5-95.5c25-20,12.5-41.5-22.5-28.5
	s-80,94-40,94s194-28.5,174.5-102c-8.8-33.2,40-65.5,55-74.5"/>
<path class="st30" d="M855.5,1066.9c-35.7,4-123.6,103.5-174.1,92.5c-52.6-11.5-21-51.2,0-53.5c58-6.5,230.5,37,143,72
	c-13.3,5.3-134,20-126,56s174,14.5,219-9"/>
<g>
	<defs>
		
			<rect id="SVGID_00000049937977797347078760000014895223177942366132_" x="949.4" y="274.7" transform="matrix(0.8577 -0.5141 0.5141 0.8577 -17.6361 574.6084)" width="160" height="89"/>
	</defs>
	<clipPath id="SVGID_00000028307762740446916310000014075848863597002671_">
		<use xlink:href="#SVGID_00000049937977797347078760000014895223177942366132_"  style="overflow:visible;"/>
	</clipPath>
	<g style="clip-path:url(#SVGID_00000028307762740446916310000014075848863597002671_);">
		<path class="st32" d="M1008.2,341.6l3.8-12.6l0,0l-12.8-2.6c0,0-11.3-1.9-17.9,2.6c-11.2,7.7-20.7,30.8-20.7,30.8l0,0
			c0.8,0.1,25,2.4,36.9-3.7C1004.6,352.5,1008.2,341.6,1008.2,341.6z"/>
		<path class="st33" d="M1006.5,341.2l3.5-10.8l0,0l-11.1-1.9c0,0-9.8-1.4-15.6,2.6c-9.9,6.8-18.7,26.6-18.7,26.6l0,0
			c0.7,0,21.7,1.6,32.2-3.9C1003.1,350.5,1006.5,341.2,1006.5,341.2z"/>
		<path class="st34" d="M1003.9,340l2.2-7.3l0,0l-7.5-1.5c0,0-6.6-1.1-10.4,1.5c-6.6,4.5-12.1,18-12.1,18l0,0
			c0.4,0,14.6,1.4,21.5-2.2C1001.8,346.4,1003.9,340,1003.9,340z"/>
		<path class="st10" d="M1004.1,338.9l1.9-6.2l0,0l-6.4-1.2c0,0-5.6-0.9-8.9,1.4c-5.6,3.9-10.4,15.3-10.4,15.3l0,0
			c0.4,0,12.5,1.1,18.4-2C1002.2,344.3,1004.1,338.9,1004.1,338.9z"/>
		<path class="st27" d="M992.6,325.2l-0.6,0c-0.1,0-0.2,0-0.3,0.1c-0.1,0.1-0.2,0.1-0.2,0.3c-0.1,0.1-0.1,0.2-0.1,0.3
			c0,0.1,0,0.2,0.1,0.3l13,22.2c0.1,0.1,0.1,0.2,0.2,0.2c0.1,0.1,0.2,0.1,0.3,0.1c0.1,0,0.2,0,0.3-0.1c0.1,0,0.2-0.1,0.3-0.2
			l0.4-0.5L992.6,325.2z"/>
		<path class="st5" d="M992,325.4l13.7,23.1c0,0,0.1,0.1,0.1,0.1c0,0,0.1,0.1,0.1,0.1c0.1,0,0.1,0,0.2,0c0.1,0,0.1,0,0.1-0.1l2-2.2
			l-13.1-22l-2.9,0.4c-0.1,0-0.1,0-0.1,0.1c0,0-0.1,0.1-0.1,0.1c0,0,0,0.1,0,0.2C992,325.3,992,325.3,992,325.4z"/>
		<path class="st8" d="M1033.4,292.8l-16.4-11.4c-0.1-0.1-0.3-0.1-0.4-0.2c-0.2,0-0.3,0-0.5,0.1L988.2,292c-0.2,0.1-0.3,0.2-0.4,0.3
			c-0.1,0.1-0.2,0.3-0.2,0.5c0,0.2,0,0.3,0.1,0.5c0.1,0.2,0.2,0.3,0.3,0.4l21.2,15.4L1033.4,292.8z"/>
		<path class="st8" d="M1054.5,328l2.3,19.9c0,0.2,0,0.3-0.1,0.5c-0.1,0.1-0.1,0.3-0.3,0.4l-22.5,19.5c-0.1,0.1-0.3,0.2-0.5,0.2
			c-0.2,0-0.3,0-0.5,0c-0.2-0.1-0.3-0.2-0.4-0.3c-0.1-0.1-0.2-0.3-0.2-0.5l-3.6-25.9L1054.5,328z"/>
		<path class="st0" d="M1059.7,328.3c22.7-17.1,28-27.2,28-27.2s-5.6-7.5-7.3-11.1c-0.2-0.4-0.4-0.7-0.8-1.5l-78.7,47.2l6.4,11.6
			C1007.4,347.3,1038.5,344.4,1059.7,328.3z"/>
		<path class="st24" d="M1035.1,287.4c25.8-12,37.2-11.8,37.2-11.8s4,8.5,6.3,11.6c0.3,0.4,0.6,0.9,1,1.4l-78.7,47.2l-7.3-11.1
			C993.6,324.6,1010.9,298.6,1035.1,287.4z"/>
		<path class="st35" d="M1072.3,275.5c0,0,2.9-0.3,11.3,0.1c6.4,0.3,14.3,2.3,14.3,2.3l-19.4,11.3L1072.3,275.5z"/>
		<path class="st36" d="M1087.7,301.1c0,0,1.8-1.8,5.5-9.4c2.7-5.7,4.7-13.7,4.7-13.7l-19.4,11.3L1087.7,301.1z"/>
		<path class="st5" d="M1041.8,311.1c3.5,5.9,11.2,7.8,17.1,4.3c5.9-3.5,7.8-11.2,4.2-17.1c-3.5-5.9-11.2-7.8-17.1-4.3
			C1040.2,297.6,1038.3,305.2,1041.8,311.1z"/>
		<path class="st8" d="M990.1,342c-0.2-0.3-0.2-0.6-0.2-0.9c0.1-0.3,0.3-0.6,0.5-0.8l28.7-19.8c0.4-0.3,0.8-0.5,1.3-0.6
			c0.5-0.1,1-0.1,1.4,0c0.5,0.1,0.9,0.3,1.3,0.6c0.4,0.3,0.7,0.6,1,1.1c0.2,0.4,0.4,0.9,0.5,1.3s0,1-0.1,1.4
			c-0.1,0.5-0.4,0.9-0.7,1.3c-0.3,0.4-0.7,0.7-1.1,0.9l-31,16c-0.3,0.1-0.6,0.2-0.9,0.1C990.5,342.5,990.3,342.3,990.1,342z"/>
		<path class="st18" d="M1061.9,299.1l-18.9,11.3c1.5,2.5,4,4.3,6.8,5.1c2.8,0.7,5.8,0.3,8.4-1.2c2.5-1.5,4.3-3.9,5-6.8
			C1063.9,304.6,1063.4,301.6,1061.9,299.1z"/>
		<path class="st37" d="M1062,299.2l-18.9,11.3c-1.5-2.5-2-5.5-1.3-8.4c0.7-2.8,2.5-5.3,5-6.8c2.5-1.5,5.5-1.9,8.4-1.2
			C1058.1,294.9,1060.5,296.7,1062,299.2z"/>
	</g>
</g>
</svg>
