<svg width="261" height="178" viewBox="0 0 261 178" fill="none" xmlns="http://www.w3.org/2000/svg">
<g clip-path="url(#clip0_266_317)">
<path d="M228.701 141.095C207.444 159.559 171.763 139.748 130.173 147.45C108.543 151.449 53.7084 183.453 39.5444 140.983C14.8685 67.0064 232.887 -16.9109 212.725 65.2695C204.757 97.7449 266.747 108.054 228.701 141.095Z" fill="#C6AEDC"/>
<path d="M3.43247 13.6974L128.876 0.0223914C129.844 -0.082898 130.816 0.182675 131.596 0.765626C132.376 1.34858 132.906 2.20559 133.08 3.16402L147.047 78.8368C147.141 79.3498 147.131 79.8767 147.015 80.3855C146.9 80.8943 146.683 81.3744 146.377 81.7966C146.07 82.2188 145.681 82.5744 145.234 82.8417C144.786 83.1091 144.288 83.2826 143.771 83.3518L17.5696 100.24C16.5799 100.373 15.5774 100.116 14.7737 99.5227C13.9701 98.9298 13.4282 98.0477 13.2625 97.0627L0.0541017 18.1585C-0.0326902 17.6417 -0.0129715 17.1125 0.112046 16.6036C0.237063 16.0946 0.464746 15.6166 0.781111 15.1989C1.09748 14.7811 1.49585 14.4324 1.95178 14.1742C2.40772 13.916 2.91159 13.7538 3.43247 13.6974Z" fill="#FA5F2F"/>
<path d="M8.75773 17.0052L125.139 4.81566C126.019 4.71094 126.906 4.93861 127.627 5.45412C128.349 5.96963 128.851 6.73584 129.037 7.60273L141.995 75.0624C142.079 75.5294 142.065 76.0087 141.956 76.4703C141.846 76.9319 141.642 77.3659 141.357 77.745C141.072 78.1242 140.711 78.4404 140.299 78.6739C139.886 78.9073 139.429 79.0529 138.957 79.1016L21.8584 94.1545C20.9557 94.2844 20.0375 94.0625 19.2936 93.5346C18.5497 93.0068 18.0368 92.2133 17.8609 91.3181L5.62613 20.9816C5.55231 20.5121 5.57622 20.0324 5.69634 19.5727C5.81647 19.1129 6.03023 18.6829 6.32422 18.3095C6.61822 17.9362 6.98611 17.6277 7.40486 17.4033C7.82361 17.1788 8.28418 17.0433 8.75773 17.0052Z" stroke="white" stroke-width="2" stroke-miterlimit="10"/>
<path d="M76.5539 100.07L71.0085 127.375L109.391 121.401L92.3331 97.0852L76.5539 100.07Z" fill="#F94B15"/>
<path d="M123.482 12.0095L14.0924 23.7618C13.5454 23.8205 13.1497 24.3117 13.2084 24.8588L13.4508 27.1168C13.5096 27.6639 14.0006 28.0598 14.5475 28.001L123.937 16.2488C124.484 16.19 124.88 15.6989 124.821 15.1517L124.579 12.8938C124.52 12.3467 124.029 11.9508 123.482 12.0095Z" fill="white"/>
<path d="M129.203 43.9334L95.8863 48.0175L91.5254 24.7874L124.775 21.0309L129.203 43.9334Z" fill="white"/>
<path d="M52.2457 52.9947L18.9824 57.1192L15.124 33.5436L48.3693 29.7871L52.2457 52.9947Z" fill="white"/>
<path d="M90.1973 48.8702L56.795 52.8511L53.0757 29.4191L86.3254 25.6626L90.1973 48.8702Z" fill="white"/>
<path d="M136.113 72.4773L24.6671 86.6954L19.9114 62.7158L130.944 49.0408L136.113 72.4773Z" fill="white"/>
<path d="M159.644 26.8609C159.644 26.8609 157.078 31.5285 157.024 33.3596C156.97 35.1907 157.101 42.2997 161.165 43.1121C163.722 43.5816 166.353 43.437 168.842 42.6902L171.148 41.1463L168.734 51.3656C168.734 51.3656 169.681 52.519 172.139 51.1591C174.598 49.7992 179.269 44.8759 179.74 42.7171C180.211 40.5584 174.656 30.5994 174.656 30.5994L159.644 26.8609Z" fill="#F4F1E4"/>
<path d="M162.117 159.321L163.319 163.724C163.319 163.724 164.073 167.314 163.961 168.005C163.849 168.696 156.459 171.91 154.866 171.645C153.274 171.38 153.844 169.589 153.844 169.589L151.497 159.568L162.117 159.321Z" fill="#F4F1E4"/>
<path d="M247.818 152.167C247.818 152.167 253.162 152.324 254.028 153.19C254.894 154.056 256.554 157.377 256.554 157.377L254.198 160.367L250.425 161.78L244.373 159.5L247.818 152.167Z" fill="#F4F1E4"/>
<path d="M163.503 166.143C163.544 166.105 163.595 166.077 163.65 166.064C163.704 166.05 163.762 166.05 163.816 166.064C163.871 166.077 163.921 166.105 163.963 166.143C164.005 166.181 164.036 166.229 164.055 166.282C164.782 168.44 167.025 172.96 165.679 174.495C164.212 176.173 158.433 177.08 153.615 176.658C148.796 176.236 141.294 179.257 138.979 176.173C137.804 174.603 141.124 173.153 143.946 172.412C149.487 170.958 152.188 166.897 153.655 168.373C155.122 169.85 158.447 168.714 159.936 168.503C161.026 168.337 162.74 166.856 163.503 166.143Z" fill="#160C03"/>
<path d="M253.234 152.889C253.232 152.835 253.244 152.78 253.268 152.731C253.292 152.682 253.327 152.64 253.372 152.607C253.416 152.575 253.467 152.554 253.521 152.546C253.576 152.538 253.631 152.544 253.682 152.562C255.791 153.419 260.677 154.676 260.964 156.695C261.274 158.903 258.187 163.876 254.719 167.247C251.251 170.617 248.64 178.278 244.795 178.018C242.834 177.883 243.897 174.428 245.189 171.802C247.706 166.654 246.396 161.955 248.465 161.803C250.533 161.65 251.856 158.392 252.655 157.144C253.274 156.175 253.27 153.908 253.234 152.889Z" fill="#160C03"/>
<path d="M184.518 117.254C184.518 117.254 154.332 115.58 148.989 123.538C146.481 127.281 149.631 156.834 150.335 163.064C150.372 163.387 150.521 163.686 150.757 163.91C150.992 164.134 151.298 164.268 151.623 164.289L162.058 164.949C162.258 164.961 162.457 164.93 162.644 164.858C162.83 164.787 162.999 164.675 163.138 164.532C163.277 164.389 163.384 164.217 163.451 164.029C163.518 163.84 163.543 163.64 163.525 163.441C160.775 133.268 161.964 135.723 172.265 137.168C175.612 137.617 198.045 137.796 199.723 137.796C201.401 137.796 213.977 125.634 210.203 117.039C206.43 108.444 193.644 107.614 193.644 107.614L184.518 117.254Z" fill="#FFC300"/>
<path d="M207.825 102.991C208.15 102.992 208.465 103.099 208.723 103.297C210.576 104.715 218.189 111.083 217.543 119.561C217.274 123.125 208.319 150.803 210.208 153.109C212.097 155.416 248.343 152.064 248.343 151.853C248.343 151.642 249.021 158.885 249.393 162.072C249.479 162.808 241.376 164.352 234.929 165.478C229.949 166.376 210.024 168.62 204.537 169.069C198.879 169.486 196.699 167.426 194.895 163.405C192.446 157.938 191.014 113.305 190.75 104.365C190.744 104.164 190.778 103.964 190.852 103.777C190.925 103.589 191.035 103.419 191.176 103.276C191.317 103.132 191.485 103.019 191.671 102.942C191.857 102.866 192.056 102.827 192.257 102.83L207.825 102.991Z" fill="#FFC300"/>
<path d="M179.749 42.7171C179.749 42.7171 169.43 45.7421 166.074 55.6113C163.382 63.4743 154.664 69.8608 163.086 81.2469C167.855 87.6917 165.549 115.473 168.694 117.676C171.839 119.88 176.236 118.933 184.518 117.254C193.967 115.343 198.507 109.499 204.326 110.127C210.145 110.756 211.608 106.353 211.451 105.096C211.294 103.84 211.491 103.256 207.049 96.7082C201.078 87.9027 194.37 89.3164 191.539 77.836C188.089 63.8423 179.749 42.7171 179.749 42.7171Z" fill="#F94B15"/>
<path d="M218.894 69.4524C216.475 62.5857 204.586 61.5893 200.342 59.0715C196.098 56.5537 197.65 48.0624 194.509 42.2459C191.369 36.4294 181.18 29.9801 178.178 28.5708C175.177 27.1616 174.719 24.3252 169.533 22.1215C164.427 19.9583 161.309 22.3549 159.86 24.6797C159.482 24.6387 159.099 24.6744 158.736 24.7847C158.372 24.895 158.034 25.0776 157.742 25.3215C155.665 27.1167 155.436 28.2567 155.75 30.5097C155.876 31.4073 156.091 32.0042 157.033 33.3641C157.033 33.3641 158.168 29.648 158.684 28.8311C159.133 28.122 159.47 27.9336 160.309 28.885C160.573 29.2396 160.869 29.648 161.206 30.1417C163.095 32.9736 167.164 33.373 169.699 33.4448C170.767 33.4718 170.924 33.4134 171.17 33.3147C171.938 32.8659 172.965 32.4485 172.839 34.0732C172.682 36.1197 174.185 39.8403 175.98 41.7791C177.398 43.323 179.439 47.2815 177.869 53.7308C176.299 60.1801 182.741 67.0961 184.469 75.1163C186.196 83.1364 193.325 89.478 198.668 90.4205C204.012 91.363 203.334 85.4836 211.352 84.0789C219.369 82.6741 221.514 76.8935 218.894 69.4524Z" fill="#03111C"/>
<path d="M166.177 62.0067L142.062 50.5263L133.69 57.3975L163.768 74.2725L166.177 62.0067Z" fill="#F94B15"/>
<path d="M155.014 49.9518H61.5329C60.5492 49.9518 59.7517 50.7496 59.7517 51.7336V78.3611C59.7517 79.3451 60.5492 80.1429 61.5329 80.1429H155.014C155.998 80.1429 156.796 79.3451 156.796 78.3611V51.7336C156.796 50.7496 155.998 49.9518 155.014 49.9518Z" fill="#06B178"/>
<path d="M150.752 44.2161H54.2782C53.2945 44.2161 52.4971 45.0138 52.4971 45.9979V73.6711C52.4971 74.6551 53.2945 75.4529 54.2782 75.4529H150.752C151.736 75.4529 152.533 74.6551 152.533 73.6711V45.9979C152.533 45.0138 151.736 44.2161 150.752 44.2161Z" stroke="#FFC300" stroke-width="2" stroke-miterlimit="10"/>
<path d="M131.645 77.3819C131.645 77.3819 126.144 74.7115 122.223 75.0257C118.302 75.3399 115.619 75.654 115.619 76.5965C115.619 77.539 122.537 77.7006 121.9 78.3289C121.263 78.9572 115.273 80.7255 111.864 80.6582C109.486 80.6133 108.028 80.4787 108.001 80.8422C107.969 81.3134 109.01 82.2604 112.936 82.7317C116.862 83.2029 117.965 84.7737 122.21 83.6742C126.454 82.5746 132.744 82.2604 132.744 82.2604L131.645 77.3819Z" fill="#F4F1E4"/>
<path d="M180.22 68.5144C180.22 68.5144 180.395 69.4793 180.09 71.8983C178.964 80.834 178.506 82.5978 176.788 85.919C174.096 91.0802 173.355 91.6592 170.058 91.7893C167.254 91.9015 163.777 90.0614 163.777 90.0614L170.457 88.329L173.916 83.6121L175.881 76.3774C175.881 76.3774 176.272 77.0865 177.528 73.3121C178.784 69.5376 180.22 68.5144 180.22 68.5144Z" fill="#BB360C"/>
<path d="M169.412 66.8583C169.412 66.8583 166.608 74.7572 164.777 77.293C163.853 78.5721 161.767 78.8279 161.61 78.8279C162.816 79.2404 164.068 79.5071 165.338 79.6223H169.268C169.268 79.6223 170.681 76.2113 170.614 72.8588C170.577 70.8026 170.17 68.77 169.412 66.8583Z" fill="#BB360C"/>
<path d="M170.681 62.7428C170.681 62.7428 166.231 77.6296 164.813 78.5721C163.395 79.5145 134.672 77.2885 131.958 76.6826C131.016 76.4761 130.231 80.6141 130.231 80.6141L129.692 84.0699C129.66 84.2765 129.669 84.4876 129.72 84.6905C129.771 84.8935 129.861 85.0842 129.987 85.2515C130.112 85.4189 130.27 85.5594 130.45 85.6647C130.631 85.7701 130.831 85.8383 131.038 85.8651C135.547 86.5024 149.339 88.4592 167.5 91.1475C172.916 91.9509 175.576 87.3192 177.559 82.8132C179.762 77.7821 180.251 68.5009 180.251 68.5009L170.681 62.7428Z" fill="#F94B15"/>
<path d="M136.225 36.5371C136.225 36.5371 133.425 33.6244 131.9 33.5256C130.374 33.4269 129.1 33.0768 127.319 33.4808C125.538 33.8847 124.941 34.2078 124.349 35.5677C123.757 36.9276 123.9 38.2874 124.475 38.5792C124.67 38.6761 124.888 38.7182 125.105 38.7008C125.322 38.6834 125.531 38.6072 125.708 38.4804C126.157 38.2381 126.256 38.6779 126.767 38.6779C127.279 38.6779 127.741 38.9023 128.207 38.7273C128.844 38.4804 129.338 38.7946 129.607 38.7721C130.285 38.7273 131.052 37.9015 131.052 37.9015C131.052 37.9015 132.366 36.5551 133.169 36.5551C134.233 36.5551 135.121 36.6044 135.121 36.6044L136.225 36.5371Z" fill="#F4F1E4"/>
</g>
<defs>
<clipPath id="clip0_266_317">
<rect width="261" height="178" fill="white"/>
</clipPath>
</defs>
</svg>
