<svg width="273" height="211" viewBox="0 0 273 211" fill="none" xmlns="http://www.w3.org/2000/svg">
<g clip-path="url(#clip0_238_159)">
<path d="M236.187 129.878C216.576 182.282 188.872 181.359 131.114 181.359C73.3547 181.359 35.8169 185.101 27.036 129.878C12.6654 39.4831 46.8504 -13.7242 130.123 25.1836C182.391 49.6208 262.457 59.6808 236.187 129.878Z" fill="#C6AEDC"/>
<path d="M3.96813 57.1775L149.765 41.3853C150.89 41.2638 152.019 41.5707 152.924 42.244C153.83 42.9173 154.445 43.9069 154.646 45.0133L170.883 132.422C170.993 133.015 170.981 133.623 170.847 134.211C170.713 134.798 170.46 135.353 170.104 135.84C169.748 136.328 169.297 136.739 168.776 137.047C168.256 137.356 167.677 137.557 167.077 137.636L20.4245 157.14C19.274 157.294 18.1082 156.997 17.1739 156.313C16.2396 155.628 15.6101 154.608 15.4187 153.47L0.0626189 62.3604C-0.0422226 61.7628 -0.0229753 61.1503 0.119165 60.5605C0.261305 59.9706 0.523339 59.4159 0.889153 58.9305C1.25497 58.445 1.71682 58.039 2.24632 57.7376C2.77582 57.4361 3.36177 57.2455 3.96813 57.1775Z" fill="#FF5C00"/>
<path d="M10.1471 61.2149L145.406 47.1382C146.429 47.0163 147.46 47.2789 148.298 47.8745C149.135 48.4701 149.718 49.3555 149.932 50.3568L164.996 128.261C165.094 128.8 165.079 129.353 164.951 129.886C164.824 130.42 164.587 130.921 164.255 131.359C163.924 131.796 163.505 132.162 163.025 132.431C162.545 132.701 162.015 132.869 161.466 132.925L25.3729 150.309C24.3245 150.457 23.2587 150.2 22.3953 149.591C21.5319 148.981 20.9366 148.066 20.7322 147.033L6.50234 65.8069C6.41815 65.2646 6.44725 64.7109 6.58781 64.1802C6.72837 63.6495 6.97737 63.1533 7.31932 62.7225C7.66127 62.2917 8.08883 61.9355 8.57535 61.6761C9.06186 61.4167 9.59692 61.2598 10.1471 61.2149Z" stroke="white" stroke-width="2" stroke-miterlimit="10"/>
<path d="M83.9085 159.436L77.4636 190.963L122.067 184.065L102.242 155.989L83.9085 159.436Z" fill="#FF5C00"/>
<path d="M36.5992 97.4173C43.7987 97.4173 49.635 91.6162 49.635 84.4601C49.635 77.3041 43.7987 71.5029 36.5992 71.5029C29.3998 71.5029 23.5635 77.3041 23.5635 84.4601C23.5635 91.6162 29.3998 97.4173 36.5992 97.4173Z" fill="white"/>
<path d="M92.4255 69.9411L60.3631 73.0435C59.1363 73.1622 58.2385 74.2457 58.3578 75.4636C58.4771 76.6816 59.5683 77.5727 60.795 77.454L92.8574 74.3516C94.0842 74.2329 94.9819 73.1494 94.8627 71.9315C94.7434 70.7135 93.6522 69.8224 92.4255 69.9411Z" fill="white"/>
<path d="M82.8885 80.1928L62.1866 82.1959C60.9598 82.3146 60.062 83.3981 60.1813 84.6161C60.3006 85.834 61.3918 86.7251 62.6185 86.6064L83.3205 84.6033C84.5472 84.4846 85.445 83.401 85.3257 82.1831C85.2065 80.9652 84.1153 80.0741 82.8885 80.1928Z" fill="white"/>
<path d="M92.4287 125.918L37.0684 132.22C36.5875 132.271 36.1049 132.139 35.718 131.851C35.331 131.562 35.0683 131.139 34.9827 130.665L31.1189 109.934C31.0707 109.678 31.0758 109.416 31.134 109.162C31.1922 108.909 31.3022 108.67 31.4572 108.46C31.6122 108.251 31.8089 108.075 32.0351 107.944C32.2612 107.814 32.512 107.73 32.7718 107.7L88.3615 101.253C88.8428 101.201 89.3259 101.332 89.7132 101.621C90.1004 101.91 90.3628 102.334 90.4473 102.807L94.0973 123.689C94.1447 123.946 94.1384 124.209 94.0789 124.463C94.0194 124.717 93.9079 124.956 93.7513 125.165C93.5947 125.374 93.3965 125.549 93.1689 125.678C92.9414 125.808 92.6894 125.889 92.4287 125.918Z" fill="white"/>
<path d="M156.132 66.7468L124.548 72.0455C120.921 72.6538 118.478 76.0688 119.09 79.6732L130.854 148.958C131.466 152.562 134.902 154.991 138.528 154.382L170.113 149.084C173.739 148.475 176.183 145.06 175.571 141.456L163.806 72.1715C163.194 68.5672 159.758 66.1384 156.132 66.7468Z" stroke="white" stroke-width="2" stroke-miterlimit="10"/>
<path d="M200.088 107.628L211.815 106.643V137.186L205.376 143.099L194.306 133.407L200.088 107.628Z" fill="#04724D"/>
<path d="M186.703 95.313L147.554 103.03L179.81 104.917L186.703 95.313Z" fill="#04724D"/>
<path d="M161.763 73.7989C161.763 73.7989 159.281 75.9343 161.43 86.7561C163.578 97.578 163.249 104.658 168.865 104.984C174.481 105.311 181.093 93.9811 187.204 90.2079C193.315 86.4348 202.237 76.9035 206.7 75.7529C211.164 74.6023 212.478 71.1557 211.982 69.5334C211.487 67.9112 204.719 62.1427 204.719 62.1427L161.763 73.7989Z" fill="#FFC300"/>
<path d="M173.532 29.0967C173.532 29.0967 158.744 31.8436 155.094 38.1252C151.783 43.8264 147.273 55.0007 152.179 66.2475C157.003 77.3337 165.064 83.9833 173.986 83.8175C182.907 83.6516 185.17 80.4278 185.17 80.4278L181.254 71.6895L209.505 68.9011C209.505 68.9011 211.424 57.9134 208.682 51.4919C205.584 44.2358 200.751 37.7002 194.144 34.3884C189.755 32.2839 185.16 30.6339 180.43 29.4646L173.532 29.0967Z" fill="#FFC300"/>
<path d="M164.991 74.3639L186.855 79.4327C186.855 79.4327 186.709 79.4846 186.213 79.6297C186.213 79.5882 186.213 79.4068 186.13 79.8474L178.913 78.8108C173.084 77.966 163.734 75.8825 163.734 75.8825C163.734 75.8825 163.734 76.1934 164.537 75.0532C164.824 74.6645 164.991 74.3639 164.991 74.3639Z" fill="#A98202"/>
<path d="M192.726 44.8163C192.726 44.8163 197.189 51.4659 198.013 54.2595C198.552 56.1467 198.966 58.0667 199.254 60.0073L198.347 60.1732C198.347 60.1732 197.518 55.7366 196.199 52.9482C194.879 50.1599 192.726 44.8163 192.726 44.8163Z" fill="#A98202"/>
<path d="M147.554 103.03L205.376 105.985V143.099L146.23 140.471L147.554 103.03Z" fill="#208261"/>
<path d="M178.851 19.8608C178.71 19.6245 178.501 19.4356 178.252 19.3187C178.002 19.2019 177.722 19.1624 177.45 19.2055C177.177 19.2485 176.923 19.372 176.722 19.5601C176.521 19.7481 176.382 19.9919 176.322 20.2599C175.623 23.4836 174.298 27.8787 172.15 28.9878C171.316 29.418 169.772 29.9052 169.543 30.0607C168.573 30.7759 169.204 31.4808 170.064 32.336C171.874 34.1707 174.304 36.5393 176.431 36.5393C178.116 36.5175 179.763 36.035 181.19 35.1445C182.618 34.2541 183.771 32.9901 184.524 31.4911C185.045 30.3354 183.481 30.4546 181.322 29.646C181.075 29.5838 180.853 29.4492 180.683 29.2598C180.514 29.0704 180.406 28.8348 180.373 28.5835L180.238 22.6077C180.232 22.3753 180.166 22.1484 180.045 21.9495L178.851 19.8608Z" fill="#F4F1E4"/>
<path d="M187.037 9.75935C187.037 9.75935 187.866 13.206 187.037 14.8489C186.208 16.4919 185.056 17.8032 185.056 19.2803C185.056 20.7574 185.384 22.9083 183.898 23.3903C182.412 23.8723 180.248 25.0281 178.115 22.4004C175.983 19.7727 171.18 15.6626 171.18 15.6626L173.986 9.75417L187.037 9.75935Z" fill="#F4F1E4"/>
<path d="M174.236 0.0725689C172.479 0.198141 170.798 0.83808 169.406 1.91171C168.014 2.98534 166.973 4.44457 166.414 6.10543C164.266 12.0191 164.548 16.2483 165.669 18.4199C169.59 26.0129 172.828 26.9406 173.798 27.0339C173.883 27.0435 173.968 27.0261 174.042 26.9841C174.116 26.9422 174.175 26.878 174.21 26.8007C174.731 25.6449 176.973 20.69 175.951 18.9538C174.799 16.9843 173.641 17.969 173.641 15.9995C173.641 14.03 174.564 12.5011 175.128 13.6983C175.894 15.3206 176.285 14.3566 176.285 14.3566L177.13 12.5322C177.169 12.4437 177.238 12.3711 177.324 12.3259C177.41 12.2808 177.509 12.2658 177.604 12.2834C178.762 12.4856 182.693 13.1075 185.207 12.5478C188.179 11.8947 195.531 11.7703 192.929 4.25515C192.111 1.89176 188.346 4.71123 184.753 2.41003C180.008 -0.632313 174.236 0.0725689 174.236 0.0725689Z" fill="#03111C"/>
<path d="M238.747 175.611L242.689 188.931L251.767 185.371C251.767 185.371 249.291 178.804 247.471 175.684C245.651 172.564 238.747 175.611 238.747 175.611Z" fill="#F4F1E4"/>
<path d="M239.133 186.07L238.992 186.179C238.471 186.635 235.139 189.512 235.593 190.719C236.114 192.031 247.46 204.081 249.963 206.154C252.899 208.574 260.042 213.052 262.191 209.932C264.339 206.812 261.555 201.557 258.901 197.633C256.246 193.71 250.808 180.53 250.146 181.214C249.483 181.898 250.313 186.469 247.017 186.469C245.316 186.444 243.645 186.012 242.147 185.21C241.853 185.056 241.523 184.986 241.192 185.007C240.86 185.028 240.541 185.14 240.27 185.329L239.133 186.07Z" fill="#68210B"/>
<path d="M171.18 104.181C171.18 104.181 197.94 111.24 208.202 127.825C217.4 142.721 232.86 173.108 235.916 179.136C236.064 179.431 236.307 179.668 236.607 179.808C236.907 179.948 237.246 179.983 237.569 179.908L247.137 177.42C247.504 177.326 247.821 177.094 248.021 176.774C248.221 176.453 248.289 176.069 248.211 175.699C246.939 169.687 241.647 145.406 236.599 134.371C230.816 121.73 226.358 114.158 221.399 108.426C216.441 102.693 222.557 86.2586 219.913 84.6156C217.27 82.9727 205.209 77.7224 203.228 77.7224C201.246 77.7224 185.718 86.7717 182.579 90.8662C179.44 94.9606 171.18 104.181 171.18 104.181Z" fill="#F94B15"/>
<path d="M194.144 79.7955C194.144 79.7955 219.418 79.4638 230.237 85.2946C234.904 87.8083 245.604 124.462 247.585 131.111C249.228 136.61 252.054 145.996 252.982 149.07C253.063 149.34 253.035 149.631 252.903 149.88C252.772 150.13 252.548 150.319 252.278 150.407L242.371 153.698C242.11 153.785 241.825 153.771 241.574 153.659C241.323 153.546 241.123 153.344 241.015 153.092C238.841 147.909 228.021 122.596 221.582 112.883C214.381 102.046 194.144 79.7955 194.144 79.7955Z" fill="#F94B15"/>
<path d="M199.593 75.6078L186.208 79.6297L196.616 83.9833L209.339 78.8937L199.593 75.6078Z" fill="#F8F3FC"/>
<path d="M186.208 79.6297L196.616 83.9833V85.2946L186.046 80.8632L186.208 79.6297Z" fill="#540C97"/>
<path d="M170.268 66.6362L164.944 74.5816C169.398 76.0162 173.936 77.181 178.533 78.0697C184.925 79.2513 191.396 80.0599 191.396 80.0599C191.396 80.0599 193.357 80.0599 194.556 79.2617C195.239 78.7901 200.813 80.4486 200.813 80.4486C200.963 80.3425 201.089 80.2063 201.183 80.0488C201.277 79.8913 201.336 79.716 201.357 79.5342C201.378 79.3524 201.361 79.1682 201.306 78.9936C201.251 78.819 201.159 78.6578 201.038 78.5206C200.214 77.2922 194.202 75.7685 191.563 76.1831C188.925 76.5977 170.268 66.6362 170.268 66.6362Z" fill="#F4F1E4"/>
<path d="M193.972 59.7067L228.997 54.3424L229.826 78.619L196.616 83.9833L193.972 59.7067Z" fill="#D9C9E8"/>
<path d="M196.616 85.2946L229.826 78.8108V77.7431L196.616 83.9833V85.2946Z" fill="#540C97"/>
<path d="M242.34 152.06L242.053 163.789C242.053 163.789 242.919 165.593 243.784 165.593C244.65 165.593 250.563 159.425 250.563 159.425L251.136 149.5L242.34 152.06Z" fill="#F4F1E4"/>
<path d="M252.935 155.833C252.592 155.604 252.189 155.479 251.775 155.473C251.362 155.466 250.955 155.579 250.605 155.797C249.16 156.689 246.955 158.192 247.174 158.86C247.502 159.845 248.164 162.146 245.354 162.146C244.462 162.146 243.716 162.146 243.122 162.182C242.589 162.199 242.081 162.411 241.696 162.777C241.311 163.144 241.076 163.639 241.036 164.168C240.901 166.075 240.781 168.936 241.203 170.19C241.865 172.16 271.769 176.27 272.76 175.119C273.751 173.968 271.462 170.682 266.336 165.925C262.3 162.167 255.6 157.601 252.935 155.833Z" fill="#68210B"/>
<path d="M166.43 46.3764C166.43 46.3764 164.344 50.1961 165.314 55.7366C166.284 61.2771 170.268 66.6207 170.268 66.6207C170.268 66.6207 172.051 67.6054 172.625 67.8853C173.522 68.3155 174.267 68.6835 174.267 68.6835C172.558 67.3078 171.049 65.7031 169.783 63.9152C167.969 61.2301 166.764 58.1846 166.253 54.9903C165.57 49.8748 166.811 47.4129 166.936 46.9828C167.061 46.5526 167.802 44.0907 167.802 44.0907L166.43 46.3764Z" fill="#A98202"/>
<path d="M165.377 75.8928C165.377 75.8928 162.399 77.5773 161.727 77.9038C161.347 78.0921 160.953 78.2498 160.548 78.3754C160.548 78.3754 162.869 76.6599 163.739 75.9032C164.881 74.9081 165.377 75.8928 165.377 75.8928Z" fill="#A98202"/>
<path d="M194.243 93.3021C194.243 93.3021 196.105 98.288 201.183 97.9667C209.589 97.4484 215.695 97.3448 219.089 99.6252C222.927 102.217 229.742 128.079 235.692 141.684C239.071 149.417 242.356 153.683 242.356 153.683C242.356 153.683 239.535 152.216 237.011 147.432C235.916 145.359 230.232 131.158 227.761 123.871C226.306 119.59 220.82 103.077 217.973 100.548C216.722 99.4386 212.316 97.9563 206.883 98.5161C202.836 98.9255 199.51 99.8688 196.287 97.4277C194.525 96.0853 194.493 94.8363 194.493 94.8363L194.243 93.3021Z" fill="#B3330B"/>
</g>
<defs>
<clipPath id="clip0_238_159">
<rect width="273" height="211" fill="white"/>
</clipPath>
</defs>
</svg>
