<svg width="228" height="224" viewBox="0 0 228 224" fill="none" xmlns="http://www.w3.org/2000/svg">
<g clip-path="url(#clip0_259_243)">
<path d="M204.872 164.269C189.213 196.521 161.459 202.622 110.035 211.208C69.5582 217.97 29.7218 208.718 22.7985 188.436C6.69262 141.275 83.6402 69.4087 108.693 115.662C133.591 161.665 234.674 102.894 204.872 164.269Z" fill="#C6AEDC"/>
<path d="M8.27406 47.9831L139.855 33.5844C140.87 33.4737 141.889 33.7535 142.707 34.3673C143.524 34.9812 144.08 35.8835 144.261 36.8923L158.917 116.589C159.016 117.128 159.005 117.683 158.884 118.218C158.763 118.754 158.535 119.259 158.214 119.703C157.893 120.147 157.485 120.521 157.015 120.802C156.545 121.083 156.023 121.265 155.481 121.338L23.0856 139.12C22.0479 139.259 20.9969 138.988 20.1546 138.364C19.3123 137.74 18.7448 136.811 18.572 135.774L4.73002 52.6803C4.63968 52.1362 4.66086 51.5793 4.79229 51.0437C4.92372 50.508 5.16263 50.005 5.49439 49.5653C5.82615 49.1256 6.24379 48.7585 6.72174 48.4864C7.19969 48.2144 7.72791 48.0431 8.27406 47.9831Z" fill="#FFC300"/>
<path d="M13.8655 51.4611L135.954 38.6313C136.877 38.519 137.808 38.758 138.565 39.3012C139.321 39.8444 139.847 40.6524 140.039 41.5658L153.636 112.595C153.724 113.087 153.709 113.591 153.594 114.077C153.479 114.563 153.265 115.02 152.966 115.419C152.667 115.818 152.289 116.151 151.856 116.397C151.423 116.643 150.945 116.796 150.45 116.848L27.6087 132.693C26.6627 132.831 25.7001 132.598 24.9203 132.043C24.1405 131.488 23.6033 130.653 23.4198 129.711L10.5756 55.6527C10.4989 55.1578 10.5247 54.6525 10.6512 54.1681C10.7777 53.6837 11.0024 53.2306 11.3111 52.8373C11.6198 52.444 12.006 52.1188 12.4455 51.882C12.885 51.6452 13.3684 51.5019 13.8655 51.4611Z" stroke="white" stroke-width="2" stroke-miterlimit="10"/>
<path d="M145.216 108.834L32.6071 123.582C32.2211 123.632 31.8306 123.534 31.5138 123.307C31.197 123.08 30.9773 122.741 30.8986 122.358L25.8249 97.4737C25.7817 97.2628 25.783 97.0451 25.8288 96.8347C25.8745 96.6243 25.9637 96.4258 26.0905 96.2522C26.2173 96.0785 26.379 95.9335 26.5651 95.8265C26.7513 95.7194 26.9577 95.6527 27.171 95.6307L139.244 83.8169C139.611 83.778 139.98 83.8732 140.283 84.0848C140.587 84.2965 140.804 84.6107 140.896 84.9699L146.506 106.915C146.561 107.127 146.571 107.349 146.534 107.564C146.498 107.78 146.416 107.986 146.293 108.168C146.171 108.349 146.012 108.502 145.826 108.617C145.641 108.732 145.433 108.806 145.216 108.834Z" fill="white"/>
<path d="M57.6929 83.6798L25.147 86.7136L19.7769 60.0994L51.6497 58.7526L57.6929 83.6798Z" fill="white"/>
<path d="M98.1224 79.6348L65.5765 82.6686L60.2063 56.0543L92.0838 54.7076L98.1224 79.6348Z" fill="white"/>
<path d="M138.048 76.2702L105.502 79.2993L100.132 52.6898L132.01 51.3383L138.048 76.2702Z" fill="white"/>
<path d="M84.9816 138.926L79.1643 167.672L119.424 161.382L101.53 135.784L84.9816 138.926Z" fill="#FFC300"/>
<path d="M161.416 64.3618L81.1976 66.4505C80.5596 66.4666 79.9353 66.2631 79.4284 65.8736C78.9215 65.4842 78.5626 64.9324 78.4113 64.3099L64.574 7.13084C64.4739 6.71709 64.469 6.28587 64.5597 5.86994C64.6504 5.454 64.8343 5.06428 65.0974 4.73038C65.3606 4.39648 65.696 4.12718 66.0783 3.94292C66.4607 3.75867 66.8798 3.66431 67.3038 3.66702L148.76 4.08759C149.388 4.0898 149.997 4.30536 150.488 4.69919C150.978 5.09302 151.322 5.64194 151.462 6.25661L164.066 60.9405C164.157 61.3448 164.157 61.7641 164.067 62.1684C163.977 62.5727 163.799 62.952 163.545 63.2791C163.292 63.6061 162.97 63.8728 162.602 64.06C162.234 64.2472 161.829 64.3503 161.416 64.3618Z" fill="#F94B15"/>
<path d="M164.513 58.4455L89.1517 60.4491C88.5478 60.4614 87.9582 60.2648 87.4817 59.8922C87.0051 59.5196 86.6708 58.9937 86.5348 58.4029L73.5353 3.78043C73.4393 3.38865 73.4329 2.98012 73.5167 2.58553C73.6006 2.19094 73.7723 1.82055 74.0192 1.5022C74.2661 1.18385 74.5816 0.925812 74.9421 0.747475C75.3025 0.569138 75.6985 0.475143 76.1004 0.472549L152.624 0.874216C153.219 0.8806 153.794 1.08919 154.256 1.46595C154.717 1.8427 155.038 2.36538 155.166 2.94873L167.003 55.1659C167.093 55.5497 167.097 55.9487 167.015 56.3342C166.933 56.7198 166.767 57.0824 166.529 57.3959C166.291 57.7095 165.987 57.9662 165.638 58.1476C165.29 58.3291 164.906 58.4308 164.513 58.4455Z" stroke="#FFC300" stroke-width="2" stroke-miterlimit="10"/>
<path d="M63.4208 60.6145L14.0019 63.3364C13.2276 63.3799 12.4613 63.1595 11.8274 62.7109C11.1935 62.2623 10.7291 61.6118 10.5097 60.8649L0.155217 25.6455C0.00519858 25.135 -0.0254483 24.5965 0.0656659 24.0722C0.15678 23.5478 0.367197 23.0516 0.680533 22.6222C0.99387 22.1929 1.40167 21.8419 1.8722 21.5966C2.34272 21.3514 2.86328 21.2185 3.39333 21.2082L53.4288 20.3009C54.1835 20.2879 54.9215 20.5241 55.5295 20.9732C56.1374 21.4222 56.5817 22.0593 56.794 22.7865L66.546 56.1867C66.6923 56.6877 66.7238 57.2154 66.6381 57.7304C66.5524 58.2454 66.3517 58.7342 66.051 59.1602C65.7503 59.5862 65.3575 59.9383 64.902 60.1902C64.4465 60.442 63.9401 60.5871 63.4208 60.6145Z" fill="#FCAF97"/>
<path d="M224.969 57.472L174.27 58.6061C173.59 58.6204 172.925 58.4098 172.376 58.0067C171.827 57.6036 171.426 57.0305 171.234 56.3757L160.169 18.7226C160.034 18.2632 160.007 17.7788 160.089 17.3071C160.171 16.8354 160.36 16.389 160.642 16.0027C160.924 15.6164 161.291 15.3006 161.714 15.0798C162.137 14.8589 162.606 14.7391 163.082 14.7295L215.937 13.7844C216.643 13.7706 217.333 13.9998 217.891 14.434C218.449 14.8681 218.842 15.481 219.006 16.1708L227.915 53.649C228.02 54.0999 228.024 54.5686 227.926 55.0211C227.828 55.4735 227.63 55.8983 227.348 56.2645C227.066 56.6307 226.706 56.9291 226.294 57.138C225.883 57.3469 225.43 57.461 224.969 57.472Z" fill="#FCAF97"/>
<path d="M168.471 45.4455C168.471 45.4455 167.53 53.5309 168.862 55.9976C170.194 58.4644 173.743 60.3073 173.743 61.1674V64.7588L182.746 66.4978L182.134 59.0314L179.781 46.1732L168.471 45.4455Z" fill="#EDE2C5"/>
<path d="M168.693 37.3601C167.345 37.5943 166.12 38.2887 165.224 39.3259C163.492 41.2918 163.431 42.9032 164.669 45.781C166.401 49.8261 170.764 48.1438 172.326 50.1616C173.889 52.1794 172.326 53.942 171.936 56.2245C171.375 59.5323 173.164 59.83 175.964 60.2128C180.939 60.8838 183.067 60.9973 184.855 57.5712C186.644 54.1452 186.309 53.4175 187.147 52.0707C187.985 50.7239 189.999 49.4858 189.83 45.6676C189.66 41.8494 188.766 39.4913 185.123 38.4848C181.48 37.4783 179.979 37.3507 174.948 37.19C169.587 37.0246 168.693 37.3601 168.693 37.3601Z" fill="#070707"/>
<path d="M144.727 17.0545C147.326 17.0545 149.433 14.9388 149.433 12.3289C149.433 9.71909 147.326 7.60339 144.727 7.60339C142.127 7.60339 140.02 9.71909 140.02 12.3289C140.02 14.9388 142.127 17.0545 144.727 17.0545Z" fill="white"/>
<path d="M144.727 17.0545C147.326 17.0545 149.433 14.9388 149.433 12.3289C149.433 9.71909 147.326 7.60339 144.727 7.60339C142.127 7.60339 140.02 9.71909 140.02 12.3289C140.02 14.9388 142.127 17.0545 144.727 17.0545Z" stroke="#FFC300" stroke-width="2" stroke-miterlimit="10"/>
<path d="M141.879 29.2464C141.879 29.2464 142.797 24.5775 142.204 23.5048C141.122 21.5532 140.971 18.0185 141.013 17.6168C141.07 17.0828 141.724 16.9694 141.917 17.0025C142.213 17.0545 141.917 16.5299 142.717 16.478C142.976 16.4407 143.239 16.5013 143.456 16.6481C143.564 16.6481 143.677 16.1755 144.11 16.1755C144.797 16.133 144.797 16.5583 145.052 16.5583C145.306 16.5583 144.689 11.6012 145.447 11.3082C146.887 10.7553 146.303 16.4449 146.454 16.5063C146.605 16.5677 146.671 16.1566 147.174 16.1566C147.678 16.1566 147.748 16.5299 147.932 17.0025C148.148 17.5554 149.118 20.9956 147.57 23.1457C146.835 24.1522 145.913 29.1802 145.913 29.1802L141.879 29.2464Z" fill="#EDE2C5"/>
<path d="M164.587 210.614C164.587 210.614 164.312 219.186 163.714 219.262C163.116 219.337 166.602 220.869 166.602 220.869L170.405 220.269C170.405 220.269 170.143 211.544 170.143 210.646C170.143 209.748 164.587 210.614 164.587 210.614Z" fill="#EDE2C5"/>
<path d="M180.157 210.321C180.157 210.321 178.884 217.578 178.286 218.4C177.688 219.222 184.256 220.651 184.256 220.651L184.714 217.538C184.714 217.538 185.218 211.322 185.143 210.646C185.068 209.97 180.157 210.321 180.157 210.321Z" fill="#EDE2C5"/>
<path d="M170.303 215.386C171.234 215.294 173.326 220.368 171.664 221.943C171.424 222.159 171.131 222.305 170.814 222.367C164.538 223.706 156.934 225.329 155.391 222.195C155.133 221.637 155.074 221.007 155.224 220.411C155.929 218.009 161.059 216.24 165.103 217.428C166.647 217.88 167.744 218.68 168.771 218.111C170.029 217.407 169.728 215.44 170.303 215.386Z" fill="#502C0B"/>
<path d="M178.841 215.387C178.841 215.387 176.206 218.041 175.014 218.041C173.823 218.041 171.359 217.599 169.486 219.633C167.613 221.667 170.425 223.795 171.445 223.974C172.465 224.153 183.559 223.371 184.793 222.823C187.171 221.762 185.389 215.477 184.879 215.387C184.369 215.298 184.283 217.622 182.668 217.778C181.052 217.935 178.841 215.387 178.841 215.387Z" fill="#502C0B"/>
<path d="M170.42 213.264C170.232 191.673 171.31 154.086 171.879 154.086C172.449 154.086 174.816 191.701 176.972 213.264H185.481C186.422 183.129 193.195 121.413 192.235 120.733C190.969 119.835 154.324 118.039 154.324 118.039C154.324 118.039 152.441 118.266 153.651 133.237C154.507 143.992 159.557 188.842 162.334 213.264H170.42Z" fill="#F94B15"/>
<path d="M185.415 64.48C185.415 64.48 174.529 63.8042 170.5 64.1019C166.471 64.3996 161.115 61.9046 154.658 57.6279C149.401 54.1641 147.65 53.1718 147.052 49.4386C146.228 44.2405 146.939 28.6462 146.939 28.6462L141.197 27.824C141.197 27.824 135.944 50.2845 137.432 54.4004C138.919 58.5164 146.04 64.617 152.601 68.7755C157.359 71.7857 159.76 73.3404 159.76 74.4461C159.76 75.5519 157.336 94.024 156.329 102.672C155.387 110.866 151.933 122.136 152.526 122.883C153.119 123.63 191.557 124.419 192.903 123.445C194.249 122.472 187.345 82.3094 187.943 81.1848C188.54 80.0601 194.532 90.7729 194.951 94.5108C195.845 102.596 191.298 104.17 188.987 105.143C186.677 106.117 186.003 107.388 186.003 107.388L186.898 112.926C186.898 112.926 192.117 113.451 194.504 111.877C196.89 110.304 203.888 104.614 203.752 95.9332C203.639 88.9725 202.109 85.8252 198.603 78.6424C195.097 71.4596 194.245 69.8813 191.11 67.0743C188.201 64.4469 185.415 64.48 185.415 64.48Z" fill="#06B178"/>
</g>
<defs>
<clipPath id="clip0_259_243">
<rect width="228" height="224" fill="white"/>
</clipPath>
</defs>
</svg>
