<svg width="1085" height="406" viewBox="0 0 1085 406" fill="none" xmlns="http://www.w3.org/2000/svg">
<path d="M985.699 183.398C961.197 183.322 937.509 192.183 919.074 208.32C907.256 192.018 888.247 184.22 870.463 186.685C864.825 153.052 831.015 127.201 790.104 127.201C770.38 127.201 752.3 133.208 738.263 143.2C728.525 130.364 712.047 121.925 693.359 121.925C681.163 121.847 669.251 125.607 659.311 132.673C656.32 125.684 651.349 119.723 645.012 115.524C638.674 111.325 631.246 109.071 623.643 109.041C618.411 109.025 613.231 110.082 608.423 112.147L596.983 1.79907L513.206 8.82471L508.481 65.2107C500.516 62.5543 492.173 61.2057 483.777 61.2172C442.324 61.2336 408.719 93.4777 408.719 133.273C408.719 136.947 409.007 140.615 409.582 144.243C396.797 138.346 382.875 135.32 368.795 135.377C329.947 135.377 297.214 157.563 287.253 187.794C279.329 180.947 269.934 176.016 259.797 173.384C249.659 170.752 239.052 170.49 228.797 172.617C221.483 153.024 208.353 136.135 191.166 124.217C173.98 112.298 153.559 105.919 132.643 105.935C105.482 105.922 79.4277 116.695 60.2096 135.886C40.9915 155.077 30.1831 181.114 30.1614 208.271C30.146 220.621 32.3736 232.872 36.736 244.426C27.2685 250.31 21.1213 260.039 21.1213 270.992C21.1352 276.196 22.5366 281.302 25.1811 285.783C9.45133 295.644 0.0332031 308.249 0.0332031 321.939C8 376.122 62.0727 393 125 393C172.304 393 348 379.639 219.083 344.256L829.651 351.414C841.016 364.923 859.976 373.781 881.426 373.781C899.432 373.781 915.663 367.552 927.136 357.576C944.256 369.698 964.73 376.181 985.707 376.122C1040.55 376.122 1085.01 332.983 1085.01 279.76C1085.01 226.538 1040.54 183.398 985.699 183.398Z" fill="#540C97"/>
<path d="M805.357 273.219C787.466 273.219 771.178 278.708 758.924 287.714C755.316 272.356 742.159 260.433 725.698 257.878C728.247 251.503 728.82 244.508 727.343 237.803C725.866 231.098 722.406 224.992 717.413 220.278C712.421 215.565 706.126 212.461 699.346 211.37C692.566 210.28 685.615 211.253 679.396 214.163C679.396 213.744 679.396 213.341 679.396 212.922C679.396 185.616 652.678 163.488 619.723 163.488C611.402 163.459 603.142 164.915 595.331 167.785L584.648 0.0241699L526.651 1.19099L518.4 138.105C510.481 134.75 501.968 133.023 493.367 133.027C460.412 133.027 433.177 157.875 428.813 190.119C423.339 187.456 417.3 186.163 411.215 186.351C405.13 186.54 399.182 188.205 393.884 191.202C388.586 194.199 384.095 198.439 380.8 203.557C377.504 208.675 375.503 214.517 374.967 220.58C371.861 220.027 368.712 219.752 365.557 219.759C338.905 219.759 316.732 239.48 311.974 265.454C299.351 256.678 283.004 251.386 265.13 251.386C225.172 251.386 192.809 277.87 192.809 310.55C192.809 312.713 192.954 314.873 193.244 317.017C167.899 317.575 153.5 323.5 147.699 340.131C140.001 370 153.62 391 180.001 391C189.494 391.092 205.001 389.737 217.001 387.5C246.501 382 255.001 375.5 270.501 374C282.603 374.035 289.203 367.196 300.238 362.227C314.472 363.402 329.824 363.657 342.702 361.48C377.268 355.621 469.83 340.937 489.16 349.154C508.489 357.371 555.366 371.997 581.73 362.622C608.094 353.246 644.411 350.296 644.411 350.296L751.865 363.78C764.504 376.287 786.428 386 808.001 386C846.076 386 889.501 381.675 889.501 351C889.501 320.325 858.501 273.219 805.357 273.219Z" fill="#DEC0FA"/>
<path d="M805.661 326.918C795.578 326.918 786.669 331.191 781.229 337.74C773.931 324.519 755.62 313.229 732.889 309.531C726.166 308.423 719.341 308.067 712.54 308.471C713.602 305.156 714.143 301.696 714.143 298.216C714.143 283.318 704.396 270.623 690.737 265.766C693.021 262.258 694.232 258.161 694.222 253.975C694.261 248.353 692.068 242.946 688.123 238.94C684.179 234.935 678.805 232.658 673.183 232.61C668.815 232.605 664.557 233.983 661.02 236.546C656.747 214.763 633.489 198.123 605.432 198.123C598.935 198.11 592.47 199.029 586.234 200.851L574.728 13.5002H537.812L527.744 168.27C521.995 165.719 515.773 164.406 509.483 164.416C485.051 164.416 465.236 183.751 465.236 207.597C465.234 212.048 465.936 216.472 467.316 220.704C466.354 220.704 465.392 220.654 464.414 220.654C431.541 220.654 404.89 239.225 404.807 262.159C403.635 261.983 402.451 261.896 401.265 261.896C392.776 261.896 385.568 266.276 382.947 272.365C376.513 267.777 368.791 265.343 360.889 265.413C343.721 265.413 329.536 276.276 327.194 290.385C316.58 284.703 304.717 281.757 292.677 281.814C258.498 281.814 230.375 304.732 226.701 334.19C224.522 333.896 222.325 333.751 220.127 333.755C204.208 333.755 188.5 346 186.5 360.5C182.5 374.5 196.581 388.5 212.5 388.5C216.642 388.516 238.997 384.409 243 383.345C258.5 401.5 265.943 399.648 292.661 399.648C311.136 399.648 327.852 392.943 339.883 382.129C343.812 382.938 347.813 383.346 351.824 383.345C368.811 383.345 383.81 376.188 392.842 365.268C399.778 373.025 410.478 377.996 422.485 377.996C435.963 377.996 447.789 371.735 454.495 362.309C469.608 388.128 502.325 406.008 540.253 406.008C571.934 406.008 599.975 393.526 617.167 374.372C627.531 382.285 642.521 387.257 659.196 387.257C676.265 387.257 691.559 382.047 701.93 373.813C708.221 376.334 714.773 378.148 721.465 379.22C746.317 383.271 745.271 384.562 776.5 383.345C791.771 383.345 796.5 387.257 811 387.257C827.58 387.257 857.684 383.391 858 381C861.5 354.5 837 329 805.661 326.918Z" fill="#F8F2FE"/>
</svg>
