<svg width="713" height="876" viewBox="0 0 713 876" fill="none" xmlns="http://www.w3.org/2000/svg">
<ellipse cx="356.5" cy="815.545" rx="356.5" ry="59.5" fill="#F8F3FC"/>
<path d="M299.862 819.099H357L307.294 764.806L239.007 762.045L226 827.841C235.291 828.301 242.723 827.841 256.195 827.841C266.601 827.841 280.351 823.7 286.39 826.461L299.862 819.099Z" fill="#FFE6C9"/>
<path d="M407.138 806.099H350L399.706 751.806L467.993 749.045L481 814.841C471.709 815.301 464.277 814.841 450.805 814.841C440.399 814.841 426.649 810.7 420.61 813.461L407.138 806.099Z" fill="#FFE6C9"/>
<path d="M517 645.045H234.06L222 698.614L408.926 754.045L517 645.045Z" fill="#540C97"/>
<path d="M242.605 800.041C243.993 786.152 236.021 780.649 232.34 777.132L113.77 768.292L95.5781 814.774C138.567 818.671 224.93 825.036 227.789 824.58C230.648 824.123 239.866 827.428 242.605 800.041Z" fill="#11001C"/>
<path fill-rule="evenodd" clip-rule="evenodd" d="M230.778 823.548C221.154 822.547 206.814 820.859 196.932 819.051C181.339 816.2 150.479 813.063 133.586 812.778C127.563 812.676 122.2 812.611 117.689 812.556C109.552 812.456 104.189 812.391 102.726 812.207C100.907 811.979 98.5027 810.782 97.5281 810.211L112.146 773.71C114.204 775.802 119.423 780.269 123.841 781.41C129.363 782.836 171.919 786.828 187.187 787.398C199.401 787.855 226.493 785.877 238.513 784.832L238.943 784.994C241.616 778.449 244.417 772.396 246.309 768.579C243.522 764.843 236.663 757.372 231.519 757.372C228.45 757.372 203.12 754.014 176.636 750.503C147.625 746.657 117.229 742.627 113.195 742.627C105.479 742.627 84.2188 749.625 72.0395 757.372C52.1046 770.053 49.8545 787.452 52.1046 799.248C54.6536 812.611 77.1846 826.379 99.6911 828.148C111.382 829.067 150.858 828.732 186.808 828.426C203.523 828.284 219.476 828.148 231.519 828.148C231.252 827.415 230.941 825.89 230.778 823.548Z" fill="#DD2B2B"/>
<path d="M129.363 770.858C126.114 776.847 122.931 787.569 121.891 795.097C120.851 802.626 119.942 815.344 120.917 820.477" stroke="white" stroke-width="9" stroke-linecap="round"/>
<path d="M148.205 773.14C145.931 778.843 144.047 789.85 143.007 797.379C141.968 804.907 141.383 814.489 141.383 821.047" stroke="white" stroke-width="9" stroke-linecap="round"/>
<path d="M166.72 774.851C164.771 780.269 162.887 789.85 161.847 797.379C160.807 804.907 159.248 814.203 160.223 820.477" stroke="white" stroke-width="9" stroke-linecap="round"/>
<path d="M184.587 777.417C181.339 785.687 180.856 791.288 179.714 798.805C178.415 807.36 178.74 815.059 178.415 820.192" stroke="white" stroke-width="9" stroke-linecap="round"/>
<path d="M203.428 779.984C201.479 785.687 199.595 792.702 198.555 800.23C197.516 807.759 196.606 815.914 197.581 821.332" stroke="white" stroke-width="9" stroke-linecap="round"/>
<path d="M220.97 782.55C219.346 788.254 219.061 791.105 217.722 800.801C216.682 808.329 215.447 817.911 216.098 823.329" stroke="white" stroke-width="9" stroke-linecap="round"/>
<path fill-rule="evenodd" clip-rule="evenodd" d="M114.929 828.685L100.774 824.469C100.467 824.364 100.12 824.245 99.7362 824.114C97.0171 823.185 92.4692 821.63 87.1319 819.622C81.0422 817.33 78.6846 815.915 74.1366 811.637C70.5625 808.276 68.2909 804.223 68.2894 796.238C68.2882 789.526 71.1505 780.774 78.6846 773.425C88.4974 763.854 96.2519 761.444 101.564 759.793C102.582 759.476 103.511 759.188 104.347 758.882C109.545 756.981 126.762 753.749 139.107 752.323L159.221 748.627C135.174 745.451 113.323 742.627 109.946 742.627C102.23 742.627 80.9698 749.625 68.7905 757.372C48.8556 770.053 46.6055 787.452 48.8556 799.248C51.4045 812.611 73.9356 826.379 96.4421 828.148C100.147 828.44 106.641 828.605 114.929 828.685Z" fill="#ECE4F3"/>
<path d="M111.495 791.961C117.167 778.217 112.47 763.159 107.921 761.733C105.323 761.448 100.559 762.874 94.6031 765.726C88.6475 768.577 79.7726 774.425 76.411 780.554C72.188 788.254 70.2394 793.672 72.188 802.512C74.478 812.901 87.4564 818.196 91.6789 818.196C98.5013 818.196 103.374 811.637 111.495 791.961Z" fill="#F8F3FC"/>
<path d="M459.283 787.081C457.894 773.192 465.866 767.689 469.548 764.172L588.118 755.332L606.31 801.814C563.321 805.711 476.957 812.076 474.099 811.62C471.24 811.164 462.022 814.468 459.283 787.081Z" fill="#11001C"/>
<path fill-rule="evenodd" clip-rule="evenodd" d="M471.11 810.588C480.735 809.587 495.075 807.899 504.957 806.091C520.549 803.24 551.41 800.103 568.302 799.818C574.326 799.716 579.689 799.651 584.2 799.596C592.337 799.496 597.7 799.431 599.163 799.248C600.982 799.019 603.386 797.822 604.361 797.251L589.742 760.75C587.685 762.842 582.466 767.309 578.048 768.45C572.525 769.876 529.97 773.868 514.702 774.438C502.488 774.895 475.395 772.917 463.376 771.872L462.946 772.034C460.273 765.489 457.471 759.436 455.58 755.619C458.366 751.883 465.226 744.412 470.37 744.412C473.439 744.412 498.769 741.054 525.252 737.543C554.264 733.697 584.659 729.667 588.693 729.667C596.41 729.667 617.67 736.665 629.849 744.412C649.784 757.093 652.034 774.492 649.784 786.288C647.235 799.651 624.704 813.419 602.198 815.188C590.507 816.107 551.03 815.772 515.081 815.466C498.365 815.324 482.412 815.188 470.37 815.188C470.637 814.455 470.948 812.93 471.11 810.588Z" fill="#DD2B2B"/>
<path d="M572.525 757.899C575.773 763.887 578.957 774.609 579.997 782.138C581.036 789.666 581.946 802.384 580.971 807.517" stroke="white" stroke-width="9" stroke-linecap="round"/>
<path d="M553.684 760.18C555.958 765.883 557.842 776.891 558.882 784.419C559.921 791.947 560.506 801.529 560.506 808.088" stroke="white" stroke-width="9" stroke-linecap="round"/>
<path d="M535.168 761.891C537.117 767.309 539.001 776.89 540.041 784.419C541.08 791.947 542.639 801.243 541.665 807.517" stroke="white" stroke-width="9" stroke-linecap="round"/>
<path d="M517.301 764.458C520.549 772.727 521.032 778.328 522.173 785.845C523.473 794.4 523.148 802.099 523.473 807.232" stroke="white" stroke-width="9" stroke-linecap="round"/>
<path d="M498.46 767.024C500.409 772.727 502.293 779.742 503.332 787.271C504.372 794.799 505.282 802.954 504.307 808.373" stroke="white" stroke-width="9" stroke-linecap="round"/>
<path d="M480.917 769.59C482.542 775.294 482.827 778.145 484.166 787.841C485.205 795.369 486.44 804.951 485.79 810.369" stroke="white" stroke-width="9" stroke-linecap="round"/>
<path fill-rule="evenodd" clip-rule="evenodd" d="M586.959 815.725L601.114 811.509C601.422 811.404 601.769 811.285 602.152 811.154C604.871 810.225 609.419 808.67 614.757 806.662C620.846 804.37 623.204 802.955 627.752 798.677C631.326 795.316 633.598 791.263 633.599 783.278C633.601 776.566 630.738 767.814 623.204 760.465C613.391 750.894 605.637 748.484 600.325 746.833C599.306 746.516 598.377 746.228 597.541 745.922C592.344 744.021 575.127 740.789 562.782 739.363L542.668 735.668C566.715 732.491 588.565 729.667 591.942 729.667C599.659 729.667 620.919 736.665 633.098 744.412C653.033 757.093 655.283 774.492 653.033 786.288C650.484 799.651 627.953 813.419 605.447 815.188C601.742 815.48 595.248 815.645 586.959 815.725Z" fill="#ECE4F3"/>
<path d="M590.393 779.001C584.721 765.257 589.418 750.199 593.966 748.773C596.565 748.488 601.329 749.914 607.285 752.766C613.24 755.617 622.115 761.465 625.477 767.594C629.7 775.294 631.648 780.712 629.7 789.552C627.41 799.941 614.431 805.236 610.209 805.236C603.386 805.236 598.514 798.677 590.393 779.001Z" fill="#F8F3FC"/>
<path d="M116.74 606.045C139.194 606.045 177.378 618.766 193.73 626.54C208.265 640.91 242.786 671.911 264.589 680.957C291.842 692.264 345.667 703.572 380.415 711.346C408.213 717.565 482.388 736.552 516 745.268L447.867 806.045L252.325 772.83C213.034 763.878 138.918 753.22 116.74 745.268C89.1449 735.374 67.1905 710.473 59.5079 692.264C54.7372 680.957 49.9686 663.289 59.5073 642.088C69.0459 620.886 83.0129 606.045 116.74 606.045Z" fill="#6727A3"/>
<path d="M405.261 691.045L248 762.227L268.814 778.045L427 729.66L405.261 691.045Z" fill="#540C97"/>
<path d="M604.527 595.033C593.198 596.92 528.792 616.405 498.088 626.738L467.384 674.647C454.193 684.511 411.504 708.466 396.766 714.102C382.028 719.738 294.989 747.92 247 762.716C251.549 768.352 262.011 781.879 267.469 790.898C272.667 799.486 278.794 823.559 282.313 835.368C282.535 836.112 283.464 836.303 283.955 835.702C287.294 831.614 293.409 823.659 301.584 823.659C308.933 823.659 309.982 833.595 313.866 834.932C320.007 837.045 339.81 833.731 357.874 830C380.049 825.42 410.555 823.398 430.199 816.966C444.186 812.386 471.478 790.898 485.124 779.625C491.199 774.607 574.506 747.216 586.105 742.284C597.704 737.352 644.442 713.75 658.771 699.659C681.628 677.18 678.899 653.511 678.899 645.761C678.899 635.897 669.346 619.693 654.336 607.715C641.906 597.798 625.679 591.511 604.527 595.033Z" fill="#6727A3"/>
<path d="M226.06 286.336C239.738 273.702 292.967 251.242 321.121 237.555L443.536 234.045C458.582 234.045 479.782 243.521 495.854 252.996C508.407 260.398 516.37 266.215 519.448 269.491C527.198 274.989 541.947 283.388 549.881 295.461C559.797 310.551 564.584 352.664 562.532 373.019C560.526 392.929 557.403 411.272 551.59 426.362C547.103 438.011 537.913 452.683 533.809 461.457C530.527 468.476 526.286 556.094 524.577 599.027L176.137 606.045C171.235 598.91 160.681 583.936 157.672 581.128C153.91 577.619 157.672 540.068 157.672 529.54C157.672 519.011 158.356 483.566 159.723 473.389C161.091 463.211 173.743 431.627 176.137 419.344C178.53 407.061 197.679 327.045 203.15 315.113C208.621 303.181 216.399 295.26 226.06 286.336Z" fill="#F2E6FD"/>
<path d="M225.589 443.788L255 468.007L182.84 469.045L176 457.282C178.622 458.204 185.234 460.188 190.705 460.742C197.545 461.434 203.701 460.396 202.333 457.282C200.966 454.168 195.835 446.902 193.099 438.944C190.363 430.986 190.363 415.07 190.705 418.53C191.047 421.99 200.011 436.894 203.701 442.404C210.883 453.13 221.485 461.087 224.562 462.125C227.64 463.163 231.744 460.05 231.744 457.282C231.744 455.067 227.641 447.825 225.589 443.788Z" fill="#B393D1"/>
<path d="M321.054 215.706C321.054 208.441 322.195 189.859 322.765 181.476L415.181 172.045C415.067 176.237 414.907 186.645 415.181 194.749C415.455 202.852 416.664 210.234 417.235 212.911C418.49 214.425 421 220.037 421 230.376C421 240.714 376.047 293.13 353.57 318.045L337.483 301.629C325.503 289.404 319 263.557 319 257.27C319 250.983 321.054 242.95 321.054 237.71V215.706Z" fill="#FFE6C9"/>
<path fill-rule="evenodd" clip-rule="evenodd" d="M388 174.819V226C388 236 380.5 264.5 371 275C366.477 279.999 355.355 294.453 344.526 308.817L353.57 318.045C376.047 293.13 421 240.714 421 230.376C421 220.037 418.49 214.425 417.235 212.911C416.664 210.234 415.455 202.852 415.181 194.749C414.907 186.645 415.067 176.237 415.181 172.045L388 174.819Z" fill="#FBDDBA"/>
<path d="M220 432.045L221.1 414.045L231 418.987L220 432.045Z" fill="#A078C5"/>
<path d="M395.686 290.089C393.66 287.515 390.357 282.184 387.5 278.5L435.114 241.245L443 233.045C440.943 242.077 438.886 253.724 434.086 266.915C430.972 275.471 419.229 301.022 413.171 315.045C408.714 307.558 398.771 294.011 395.686 290.089Z" fill="#B393D1"/>
<path d="M420.288 194.278C419.203 193.161 416.559 192.533 415.203 193.58L416.5 218.5L395.542 262.5L387.5 278C390.325 281.024 392.753 283.127 395.542 286.409C400.288 291.992 408.65 301.996 413.169 308.045C416.672 300.368 424.559 283.198 428.085 275.939C432.492 266.866 443 236.505 443 234.062C443 231.619 440.983 232.536 438.254 228.478C435.203 223.941 431.814 216.264 429.78 212.425C427.746 208.586 421.644 195.674 420.288 194.278Z" fill="#F2E6FD"/>
<path d="M419.628 201.592C419.19 203.779 417.313 213.494 416.156 218.045L413 205.442C413.526 201.825 414.704 194.52 415.209 194.24C415.84 193.89 417.734 193.89 418.997 195.29C420.112 196.528 420.259 198.441 419.628 201.592Z" fill="#A078C5"/>
<path d="M313.128 219.379C316.709 213.393 320.703 210.114 324.146 209.045L330 289.222C325.294 286.134 316.364 281.098 312.783 277.107C309.202 273.116 309.738 272.605 307.274 270.692C304.519 268.554 295.222 271.049 291.434 277.819C289.667 280.979 286.269 289.222 283.17 303.476C281.793 304.901 279.59 303.405 279.039 301.694C278.35 299.556 286.958 275.325 295.222 256.795C303.486 238.265 308.651 226.862 313.128 219.379Z" fill="#F2E6FD"/>
<path d="M208 361.5C200 363.5 192.833 364.333 187 367.5L185 369.5L254 387C252 383.833 250.211 381.541 249.5 380C246.5 373.5 238.8 362.4 232.5 361.5C225.5 360.5 216.26 359.435 208 361.5Z" fill="#B393D1"/>
<path d="M244.5 377.808C244.829 379.184 250.507 383.597 253 385.96L231.239 421.045C226.932 418.801 217.978 413.603 207.098 411.122C195.122 408.392 176.496 405.452 169.696 403.325C164.811 401.798 156.775 395.174 147.255 389.858C137.735 384.542 113.934 378.517 103.053 376.745C92.1729 374.973 89.7925 367.885 93.873 362.215C95.9536 359.324 109.173 361.152 120.054 362.215C129.871 363.174 156.776 368.24 159.496 368.24C162.216 368.24 161.876 367.885 160.516 363.632C159.156 359.38 160.516 357.253 165.956 358.316C171.314 359.363 178.537 363.632 186.697 365.759C194.857 367.885 206.418 363.632 216.958 363.632C227.499 363.632 235.659 366.113 240.759 370.012C243.48 372.091 243.82 374.973 244.5 377.808Z" fill="#FFE6C9"/>
<path d="M220.34 431.118L256 384.045L220 437.045L220.34 431.118Z" fill="#A078C5"/>
<path d="M289.801 274.882C288.675 276.554 283.464 293.687 281 302.045C289.332 297.17 307.404 286.792 313.036 284.285C318.669 281.777 322.424 283.24 323.598 284.285C324.067 284.169 324.513 283.17 322.542 280.106C320.077 276.275 317.613 276.623 313.036 271.4C308.46 266.176 304.587 268.614 300.715 268.614C296.842 268.614 291.209 272.793 289.801 274.882Z" fill="#B393D1"/>
<path d="M474.51 346.053L505 284.045C492.896 304.715 468.138 346.762 465.946 349.597C463.753 352.431 460.921 363.534 459.779 368.73C450.644 387.392 432.373 425.069 432.373 426.486C432.373 428.258 419.355 447.038 417.642 449.164C415.929 451.29 410.448 453.77 414.559 435.699C417.848 421.242 441.052 379.833 452.243 360.935C444.592 366.486 426.96 381.061 417.642 394.951C408.324 408.841 398.686 439.951 395.032 453.77C394.004 455.187 391.743 457.171 390.921 453.77C389.893 449.518 387.153 449.518 386.81 443.849C386.536 439.313 394.233 432.982 398.115 430.384C394.689 429.793 385.44 430.03 375.847 435.699C363.857 442.786 362.829 448.101 360.089 447.038C357.348 445.975 335.423 437.116 329.599 433.927C323.775 430.738 314.526 421.88 312.47 417.628C310.415 413.376 300.48 410.187 297.397 409.478C294.93 408.912 270.104 392.234 258 383.967C259.142 385.266 262.659 388.715 267.592 392.116C273.759 396.368 295.341 412.313 302.193 415.502C309.044 418.691 314.183 426.486 323.775 433.927C333.368 441.368 339.191 441.368 344.33 443.849C349.469 446.329 358.376 449.164 367.968 453.77C375.642 457.455 378.931 462.156 379.616 464.045H414.559C415.244 463.219 417.163 460.856 419.355 458.022C421.548 455.187 424.836 454.006 426.207 453.77C430.089 447.864 439.978 434.565 448.474 428.612C456.97 422.66 465.489 418.809 468.687 417.628C463.89 418.691 452.448 421.951 445.049 426.486C437.649 431.022 431.46 438.297 429.29 441.368C429.975 440.187 432.305 435.203 436.141 424.715C440.938 411.604 458.752 377.234 462.52 371.565C466.288 365.896 481.705 357.038 478.279 356.329C475.538 355.762 468.915 357.982 465.946 359.164L474.51 346.053Z" fill="#B393D1"/>
<path d="M417.977 110.003C425.189 184.769 393.214 198.045 355.465 198.045C317.717 198.045 296.389 157.47 296.389 110.003C288.145 19.516 317.717 26.1541 355.465 26.1541C393.214 26.1541 414.198 21.9613 417.977 110.003Z" fill="#FFE6C9"/>
<path d="M432 118.501C432 133.689 430.667 146.001 423 147.045C417.109 147.045 412 133.689 412 118.501C412 103.313 417.776 92.0454 423.667 92.0454C429 92.0454 432 103.313 432 118.501Z" fill="#FFE6C9"/>
<path d="M311.697 133.605C314.529 148.657 311.52 159.988 305.604 161.171C299.688 162.353 293.106 152.938 290.273 137.886C287.91 125.327 287.072 112.453 292.988 111.27C298.904 110.088 308.865 118.553 311.697 133.605Z" fill="#FFE6C9"/>
<path fill-rule="evenodd" clip-rule="evenodd" d="M315.493 12.8753C325.381 4.09002 334.588 1.63014 341.407 0.927315C347.545 -0.126998 355.047 -0.478765 364.935 0.927315C374.393 2.27215 382.666 6.90089 394.6 15.3352C406.465 23.72 413.695 35.3657 417.787 45.5567C420.87 53.2353 422.211 74.2807 422.976 86.295L422.976 86.2957C423.227 90.2263 423.416 93.1902 423.584 94.4029C424.143 98.4393 422.178 100.11 419.571 102.327C419.001 102.812 418.399 103.323 417.787 103.891C415.918 105.625 417.123 109.259 418.593 113.695C419.805 117.351 421.197 121.55 421.197 125.679V127.598C421.213 128.712 421.377 130.871 421.583 133.558C422.084 140.131 422.828 149.865 422.219 155.196C421.537 161.171 418.468 180.498 412.33 188.932C406.193 197.366 393.528 210.59 387.098 215.639C379.937 221.262 373.117 226.533 361.865 227.587C356.76 228.065 351.636 226.533 345.157 222.316C338.679 218.099 328.79 209.314 324.698 203.34C320.607 197.366 311.599 182.765 309.354 176.984C306.626 169.956 303.899 161.873 303.217 156.953C302.924 154.844 302.88 152.64 302.937 150.796C301.924 145.116 300.71 139.487 299.564 137.626C298.222 135.448 298.068 132.565 297.896 129.35C297.775 127.077 297.644 124.638 297.08 122.164C296.472 119.504 295.053 118.237 293.666 116.999C291.939 115.457 290.26 113.958 290.26 109.865C290.26 109.026 290.264 108.079 290.269 107.045C290.307 98.9821 290.369 85.6732 288.555 77.8862C286.624 69.5923 289.078 57.3341 290.669 49.3829L290.669 49.3827C290.764 48.9116 290.855 48.4556 290.942 48.0165C294.011 32.5544 307.224 20.2213 315.493 12.8753ZM306.628 151.655C307.316 153.848 308.216 155.898 309.354 156.953C311.396 158.847 314.906 160.867 317.979 162.636C319.432 163.473 320.788 164.253 321.844 164.937C321.668 162.45 322.037 159.911 322.653 158.008C323.471 155.478 324.585 153.908 325.04 153.44C325.948 151.255 330.418 150.162 333.26 149.468C333.618 149.38 333.95 149.299 334.246 149.223C338.338 148.168 344.475 148.52 348.226 149.223C350.22 149.596 352.013 150.764 353.567 151.777C354.937 152.669 356.12 153.44 357.092 153.44C359.727 153.44 360.858 152.051 362.083 150.547C362.444 150.105 362.812 149.653 363.229 149.223C365.616 146.763 370.328 146.411 374.141 146.411C376.869 146.412 386.075 146.809 392.554 149.925C397.668 152.385 399.373 153.791 400.055 158.008C400.186 158.815 400.306 159.732 400.415 160.69C401.879 159.541 403.449 158.49 405.17 157.656C410.967 154.845 415.74 151.331 416.422 149.222C416.521 148.916 416.607 148.697 416.685 148.499C417.035 147.605 417.228 147.114 417.786 140.788L417.794 140.519C417.789 140.38 417.787 140.235 417.787 140.087C417.787 136.752 417.37 132.486 416.943 128.129L416.943 128.129C416.426 122.843 415.895 117.425 416.082 113.379C416.29 108.879 415.568 106.979 414.844 105.074C414.381 103.855 413.917 102.634 413.695 100.728C413.026 94.9761 414.582 92.6199 415.523 91.195C416.019 90.4437 416.345 89.9513 416.082 89.3565C415.356 87.7101 414.403 87.9012 413.312 88.1203C411.84 88.4155 410.116 88.7614 408.354 84.7266C406.098 79.5594 403.466 56.8018 403.125 48.0165C402.784 39.2312 394.6 31.8516 386.758 31.8516C382.15 31.8516 377.804 34.5224 371.632 38.3157C366.249 41.6237 359.478 45.7854 349.932 49.7736C337.316 55.0448 332.883 54.6934 323.676 52.2335C320.844 51.4767 318.338 50.4084 316.038 49.428L316.038 49.428C311.9 47.6641 308.429 46.1844 304.923 47.3137C299.467 49.0708 298.103 61.0188 297.762 68.3984C297.523 73.5754 298.123 75.9853 299.09 79.8744C299.502 81.5291 299.981 83.4517 300.49 85.969C301.773 92.3165 300.617 96.1065 299.622 99.3683C299.294 100.44 298.985 101.455 298.785 102.485C298.189 105.558 299.214 111.974 300.174 117.975C300.86 122.268 301.512 126.349 301.512 128.841C301.512 131.785 302.506 134.132 303.515 136.513C304.552 138.962 305.604 141.447 305.604 144.655C305.604 146.873 306.041 149.353 306.628 151.655ZM390.716 169.282C389.111 165.808 385.424 163.002 382.324 162.576C377.21 161.874 369.367 160.819 363.57 162.928C360.67 163.983 358.68 163.545 356.497 163.064L356.497 163.064C354.74 162.678 352.857 162.263 350.272 162.576L349.627 162.654H349.627C343.816 163.357 335.207 164.397 333.564 166.091C332.442 167.246 332.474 170.778 333.847 175.514C336.502 177.454 340.148 179.092 345.157 179.092C348.475 179.092 350.597 178.784 352.547 178.501C354.204 178.26 355.737 178.038 357.774 178.038C359.81 178.038 362.638 178.26 365.696 178.501C369.294 178.784 373.21 179.092 376.527 179.092C380.907 179.092 384.419 175.513 387.558 172.314C388.649 171.202 389.695 170.136 390.716 169.282Z" fill="#11001C"/>
<path d="M176.5 470.847L354.03 466.548L528.666 463.241C534.317 463.134 538.934 467.728 538.855 473.38L536.077 670.781C536.001 676.21 531.606 680.586 526.177 680.64L191.025 683.953C185.749 684.005 181.34 679.948 180.953 674.686L166.769 481.576C166.351 475.876 170.787 470.985 176.5 470.847Z" fill="#FBF7FF"/>
<path d="M302.503 109.588L336.929 106.52C339.129 106.324 341.072 107.949 341.268 110.149L342.771 127.004C343.065 130.305 340.627 133.219 337.327 133.513L310.87 135.871C307.569 136.165 304.655 133.728 304.361 130.427L302.503 109.588Z" stroke="#11001C" stroke-width="8"/>
<path d="M368.126 102.783L402.552 99.7148L404.409 120.554C404.703 123.854 402.266 126.769 398.966 127.063L372.508 129.421C369.208 129.715 366.294 127.278 365.999 123.977L364.497 107.122C364.301 104.922 365.926 102.979 368.126 102.783Z" stroke="#11001C" stroke-width="8"/>
<path d="M419 89.0454L406 95.1631L406.929 105.045L415.75 100.34L419 89.0454Z" fill="#11001C"/>
<path d="M343 112.045C344.333 110.58 349.133 107.552 352.333 107.161C355.889 106.727 360.333 107.586 363 108.563" stroke="black" stroke-width="8"/>
<circle cx="348" cy="575" r="20" fill="#EBD9FC"/>
</svg>
