<?xml version="1.0" encoding="utf-8"?>
<!-- Generator: Adobe Illustrator 26.0.3, SVG Export Plug-In . SVG Version: 6.00 Build 0)  -->
<svg version="1.1" id="Layer_1" xmlns="http://www.w3.org/2000/svg" xmlns:xlink="http://www.w3.org/1999/xlink" x="0px" y="0px"
	 viewBox="0 0 1920 1080" style="enable-background:new 0 0 1920 1080;" xml:space="preserve">
<style type="text/css">
	.st0{fill:#FFFFFF;}
	.st1{fill:#F2E6FD;}
	.st2{fill:#FDC3B1;}
	.st3{fill:#FA5F2F;}
	.st4{fill:#E5CDFB;}
	.st5{fill:#A078C5;}
	.st6{opacity:0.95;fill:url(#SVGID_1_);enable-background:new    ;}
	.st7{clip-path:url(#SVGID_00000048496882363922018900000007536193543102368174_);}
	.st8{fill:#7A42AE;}
	.st9{fill:url(#SVGID_00000024684962413810658430000002189840881603324836_);}
	.st10{fill:none;stroke:#FFC300;stroke-width:4;stroke-linecap:round;stroke-dasharray:8,8;}
	.st11{fill:#3C9175;}
	.st12{fill:#04724D;}
	.st13{fill:#3DC296;}
</style>
<path class="st0" d="M1920,355.8V1080H0V876h0.1c196.2-96.9,306-75.8,389.3-19c27.2,18.5,51.5,40.9,75.2,64.1
	c0.6,0.6,1.2,1.2,1.8,1.8c75,74.2,143.2,157.1,271.3,157.1c19.4,0,36.9-3.3,53.1-9.4C962.5,1006,977.3,632.7,1398.6,676
	c2.1,0.2,4.2,0.4,6.2,0.5c39.1,2.7,73.6-7.2,104.7-25.1c165.8-95.2,235.9-414.5,410.5-227.4L1920,355.8L1920,355.8z"/>
<path class="st1" d="M1403.8,677.1c-64.4,3.7-101.8,4.7-161.7,26.9c-65,24-129,34-265,208c-97.2,124.4-147.7,154.2-187.3,159.2
	c171.7-64.5,186.5-437.9,607.8-394.6C1399.7,676.8,1401.8,677,1403.8,677.1z"/>
<path class="st2" d="M466.3,922.7c-0.3-0.2-0.5-0.3-0.8-0.5c-32-18.5-90.5-60.5-197-65.5C189.4,853.1,27,935.6,0,1001.3v-63
	c1.7-13.7,7,17.6,15,0c10-22,52-60,163-95s129.5-9.5,202,11c3.3,0.9,6.4,1.8,9.3,2.6C417.2,875.8,442.1,898.8,466.3,922.7z"/>
<path class="st3" d="M464.5,921c-69.7-48.4-147.9-90.7-225-87.7c-104.5,4-221,93-239.5,127.5v-85c196.2-96.9,306-75.8,389.3-19
	C416.5,875.4,440.9,897.7,464.5,921z"/>
<path class="st4" d="M1818.1,444c-52.5,0-150,118.5-304,205l136.5-124l103.5-96.5c18.2-9.5,60.8-28.5,86-28.5s44.5,24.7,51,37
	l29,48.5v56C1905.1,510.2,1865,444,1818.1,444z"/>
<path class="st5" d="M1920.2,424.5v66c-14.3-20.3-54-74-92-74s-52,15-124,83c-54.8,51.8-127.5,120-195.6,151
	c165.8-95.2,235.9-414.5,410.5-227.4v-3.3C1919.5,421.5,1919.9,423.1,1920.2,424.5z"/>
<linearGradient id="SVGID_1_" gradientUnits="userSpaceOnUse" x1="892.6102" y1="409.6089" x2="349.7302" y2="1050.9236" gradientTransform="matrix(1 0 0 1 0 -118)">
	<stop  offset="0" style="stop-color:#540C97"/>
	<stop  offset="1" style="stop-color:#F94B15;stop-opacity:0.9"/>
</linearGradient>
<path class="st6" d="M1920,0v424c-174.6-187.1-244.6,132.2-410.5,227.4c-31.1,17.9-65.5,27.8-104.7,25.1c-2.1-0.1-4.1-0.3-6.2-0.5
	c-421.3-43.3-436.1,330.1-607.8,394.6c-16.2,6.1-33.7,9.4-53.1,9.4c-128.1,0-196.3-83-271.3-157.1c-0.6-0.6-1.2-1.2-1.8-1.8
	c-23.6-23.3-48-45.6-75.2-64.1c-83.3-56.9-193.1-78-389.3,19H0l0,0V0H1920z"/>
<g>
	<g>
		<g>
			<defs>
				<rect id="SVGID_00000152952713573710937990000013210701732282650039_" x="758" y="353.4" width="1059.6" height="726.8"/>
			</defs>
			<clipPath id="SVGID_00000049194698234385160340000006250062415915606416_">
				<use xlink:href="#SVGID_00000152952713573710937990000013210701732282650039_"  style="overflow:visible;"/>
			</clipPath>
			<g style="clip-path:url(#SVGID_00000049194698234385160340000006250062415915606416_);">
				<path class="st8" d="M1443,633.4c61.6,7.2,85.7-21,90-36v28l-73,35h-58h-125l-166.5,3.5c16-18.3,51.5-55,120.5-66.5
					C1286.2,588.2,1366,624.4,1443,633.4z"/>
				
					<linearGradient id="SVGID_00000119086282032481663750000014309755986793241263_" gradientUnits="userSpaceOnUse" x1="1729.5685" y1="602.4937" x2="860.0684" y2="3.4937" gradientTransform="matrix(1 0 0 -1 0 964)">
					<stop  offset="0" style="stop-color:#8D5DBA"/>
					<stop  offset="1" style="stop-color:#FA7349"/>
				</linearGradient>
				<path style="fill:url(#SVGID_00000119086282032481663750000014309755986793241263_);" d="M1821.5,366.3l-88.1,7.1
					c-52.5,8-148.4,176.9-225.4,245.3s-139.7,21.4-293.7,8.6c-154-12.8-252.4,172.5-345,326.5c-51.8,86-86.7,115.3-107.4,124.4
					c200.5-30.8,193-447.8,637-402.2C1607.3,697.3,1684.3,361,1821.5,366.3z"/>
			</g>
		</g>
	</g>
</g>
<path class="st10" d="M1167.1,735.8c-28.5,103-16,228,89.5,268c104,39.4,282.6-249.5,398-241c81,6,211,182,110,172s-281-209-152-250
	c103.2-32.8,151.7-83.7,163-105"/>
<path class="st11" d="M1778.3,579.3l-17-22.2l59.5-61.8l-45.7,64.7L1778.3,579.3z"/>
<path class="st12" d="M1778.3,579.3l-3.7-19.2l17.7,4.8L1778.3,579.3z"/>
<path class="st13" d="M1729.7,559.1l33.6,0.2l56.7-62.8l-45.4,63.6l37.6,13.2l10.6-80.4L1729.7,559.1z"/>
</svg>
