<?xml version="1.0" encoding="utf-8"?>
<!-- Generator: Adobe Illustrator 26.0.3, SVG Export Plug-In . SVG Version: 6.00 Build 0)  -->
<svg version="1.1" id="Layer_1" xmlns="http://www.w3.org/2000/svg" xmlns:xlink="http://www.w3.org/1999/xlink" x="0px" y="0px"
	 viewBox="0 0 327 218.5" style="enable-background:new 0 0 327 218.5;" xml:space="preserve">
<style type="text/css">
	.st0{fill:#FFD755;}
	.st1{fill:#FFC300;}
	.st2{fill:#FFEBAA;}
	.st3{fill:none;stroke:#E5CDFB;stroke-width:4;stroke-linecap:round;stroke-dasharray:8,8;}
</style>
<path class="st0" d="M297.8,66.4l-24.5-3.2l-1.1-43.9l14.8,36.8L297.8,66.4z"/>
<path class="st1" d="M295.2,52.3l2.6,14.1l-10.9-10.3L295.2,52.3z"/>
<path class="st2" d="M263.3-0.6l0.3,81.8l12.8-17.6l-2.7-36.9l13.2,29.5l19.1-7.8L263.3-0.6z"/>
<path class="st3" d="M11.5,213.3c73.3-10.2,190.5-69,167.2-97.6c-28-34.4-89,53.5-45.3,83c46,31,89.3,12.4,124-14
	c34.7-26.4,34-68,34.1-99.8"/>
</svg>
