<svg width="283" height="498" viewBox="0 0 283 498" fill="none" xmlns="http://www.w3.org/2000/svg">
<mask id="mask0_444_608" style="mask-type:luminance" maskUnits="userSpaceOnUse" x="0" y="0" width="283" height="498">
<path d="M8.01755 0.00330732L0.775391 493.882L275.532 497.91L282.774 4.03118L8.01755 0.00330732Z" fill="white"/>
</mask>
<g mask="url(#mask0_444_608)">
<path d="M166.412 340.924L139.587 310.586V310.693L111.925 340.193C111.925 340.193 88.5437 366.685 89.686 391.386C91.6256 433.449 136.826 495.85 136.826 495.85V495.743C138.272 493.861 183.876 434.065 187.072 392.75C188.996 368.098 166.412 340.924 166.412 340.924Z" fill="#FFF2C6"/>
<path d="M162.352 344.679L139.884 317.916V317.998L116.708 344.071C116.708 344.071 97.0746 367.474 98.0362 389.265C99.6798 426.39 137.566 481.47 137.566 481.47V481.371C138.774 479.728 177.014 426.883 179.775 390.416C181.304 368.649 162.352 344.679 162.352 344.679Z" fill="#FFE48E"/>
<path d="M155.079 349.733L139.464 332.041V332.132L123.373 349.33C123.373 349.33 109.706 364.754 110.371 379.15C111.538 403.678 137.919 440.072 137.919 440.072V440.006C138.741 438.905 165.351 404.04 167.201 379.947C168.269 365.567 155.079 349.733 155.079 349.733Z" fill="#FFD039"/>
<path d="M152.325 347.399L139.094 332.222V332.271L125.444 347.062C125.444 347.062 113.938 360.325 114.472 372.692C115.458 393.711 137.755 424.985 137.755 424.985V424.936C138.469 423.991 161.004 394.056 162.533 373.382C163.478 360.99 152.325 347.399 152.325 347.399Z" fill="#FFC300"/>
<path d="M97.8308 355.066L96.9185 356.668C96.7376 356.987 96.6388 357.345 96.6309 357.712C96.6286 358.078 96.7222 358.438 96.9024 358.757C97.0827 359.075 97.3432 359.341 97.6582 359.528C97.9726 359.719 98.3335 359.822 98.7019 359.823L178.197 361.713C178.548 361.727 178.896 361.651 179.208 361.491C179.522 361.334 179.79 361.099 179.989 360.809C180.187 360.524 180.308 360.193 180.342 359.848C180.385 359.501 180.334 359.149 180.194 358.829L179.438 356.898L97.8308 355.066Z" fill="#8D5DBA"/>
<path d="M97.2876 356.997L180.292 358.731C180.458 358.737 180.624 358.706 180.777 358.64C180.928 358.574 181.062 358.476 181.171 358.353C181.279 358.229 181.358 358.083 181.402 357.925C181.443 357.764 181.443 357.594 181.402 357.432L178.862 348.648L99.8024 347.276L96.2521 355.616C96.2193 355.779 96.2193 355.947 96.2521 356.109C96.2898 356.27 96.3597 356.421 96.4576 356.553C96.5597 356.685 96.6885 356.794 96.8356 356.873C96.9768 356.944 97.1304 356.986 97.2876 356.997Z" fill="#540C97"/>
<path d="M79.2078 195.571L22.5593 220.222C22.1159 220.416 21.7265 220.715 21.4252 221.093C21.12 221.466 20.9137 221.91 20.8253 222.384L3.4683 312.657C3.36476 313.182 3.4074 313.725 3.59157 314.226C3.77486 314.729 4.091 315.172 4.50634 315.51C4.92168 315.847 5.42067 316.065 5.95021 316.141C6.48087 316.223 7.02393 316.158 7.5199 315.952L82.3061 285.475L79.2078 195.571Z" fill="#F94B15"/>
<path d="M205.859 197.371L261.743 223.665C262.181 223.869 262.562 224.176 262.853 224.561C263.143 224.947 263.335 225.399 263.412 225.876L278.131 316.634C278.214 317.163 278.155 317.705 277.958 318.204C277.763 318.703 277.433 319.138 277.005 319.461C276.581 319.79 276.075 319.997 275.542 320.061C275.009 320.127 274.469 320.045 273.98 319.822L200.106 287.126L205.859 197.371Z" fill="#F94B15"/>
<path d="M225.978 183.303C217.949 95.7247 189.201 66.3977 189.201 66.3977C189.201 66.3977 160.388 68.7971 148.332 67.5399C146.828 67.3838 145.973 67.4659 143.187 67.1701L139.078 350.481L179.956 352.485C179.956 352.485 233.481 265.162 225.978 183.303Z" fill="#ECE4F3"/>
<path d="M56.9771 182.925C67.5622 95.6179 97.0247 65.272 97.0247 65.272C97.0247 65.272 125.789 68.5177 137.869 67.6221C139.382 67.507 141.157 67.3591 143.104 67.1783L138.995 350.489L97.9698 351.516C97.9698 351.516 51.6927 284.39 56.9771 182.925Z" fill="#DEC0FA"/>
<path d="M97.0498 65.272C97.0498 65.272 100.978 57.3424 115.697 35.8053C126.767 19.5847 144.929 2 144.929 2L143.162 71.3444L97.0498 65.272Z" fill="#FA7349"/>
<path d="M189.201 66.3976C189.201 66.3976 187.36 58.6982 173.274 36.7256C162.68 20.2009 145.044 2.09033 145.044 2.09033L143.244 71.3444L189.201 66.3976Z" fill="#FA5F2F"/>
<path d="M140.935 203.213C148.514 203.292 155.947 201.124 162.294 196.982C168.641 192.841 173.619 186.912 176.6 179.944C179.58 172.976 180.428 165.282 179.038 157.832C177.648 150.383 174.082 143.512 168.789 138.087C163.497 132.662 156.716 128.927 149.302 127.353C141.888 125.779 134.173 126.436 127.133 129.242C120.092 132.048 114.041 136.877 109.743 143.119C105.445 149.36 103.093 156.736 102.983 164.313C102.92 169.359 103.852 174.368 105.725 179.054C107.599 183.74 110.377 188.011 113.901 191.623C117.425 195.235 121.627 198.118 126.265 200.107C130.904 202.095 135.889 203.151 140.935 203.213Z" fill="#540C97"/>
<path d="M137.804 389.068C136.802 389.057 135.842 388.662 135.123 387.965C134.403 387.268 133.977 386.322 133.933 385.321L128.616 277.677C128.542 276.199 128.775 274.722 129.298 273.338C129.821 271.954 130.624 270.692 131.657 269.632C132.686 268.567 133.926 267.728 135.297 267.167C137.011 266.45 138.879 266.184 140.725 266.396C142.57 266.608 144.33 267.29 145.836 268.377C147.342 269.464 148.544 270.919 149.326 272.604C150.108 274.288 150.445 276.145 150.304 277.997L141.847 385.436C141.766 386.442 141.301 387.377 140.549 388.049C139.797 388.726 138.815 389.091 137.804 389.068Z" fill="#F94B15"/>
<path d="M141.963 130.812L140.936 198.907C149.967 199.043 158.682 195.587 165.165 189.298C171.647 183.009 175.365 174.403 175.502 165.373C175.638 156.343 172.181 147.629 165.891 141.147C159.601 134.666 150.994 130.948 141.963 130.812Z" fill="#C48EF6"/>
<path d="M142.579 130.812L141.584 198.891C137.098 198.849 132.664 197.921 128.538 196.161C124.411 194.4 120.673 191.841 117.539 188.632C114.405 185.422 111.936 181.625 110.274 177.458C108.612 173.291 107.791 168.837 107.856 164.352C107.922 159.866 108.873 155.438 110.656 151.322C112.439 147.205 115.017 143.481 118.244 140.365C121.471 137.248 125.282 134.799 129.458 133.16C133.634 131.521 138.093 130.723 142.579 130.812Z" fill="#E5CDFB"/>
</g>
</svg>
