<?xml version="1.0" encoding="utf-8"?>
<!-- Generator: Adobe Illustrator 26.0.3, SVG Export Plug-In . SVG Version: 6.00 Build 0)  -->
<svg version="1.1" id="Layer_1" xmlns="http://www.w3.org/2000/svg" xmlns:xlink="http://www.w3.org/1999/xlink" x="0px" y="0px"
	 viewBox="0 0 183.9 289" style="enable-background:new 0 0 183.9 289;" xml:space="preserve">
<style type="text/css">
	.st0{clip-path:url(#SVGID_00000022560568194434901260000003877778345064493701_);}
	.st1{fill:#FFF2C6;}
	.st2{fill:#FFE48E;}
	.st3{fill:#FFD039;}
	.st4{fill:#FFC300;}
	.st5{fill:#8D5DBA;}
	.st6{fill:#540C97;}
	.st7{fill:#F94B15;}
	.st8{fill:#ECE4F3;}
	.st9{fill:#DEC0FA;}
	.st10{fill:#FA7349;}
	.st11{fill:#FA5F2F;}
	.st12{fill:#C48EF6;}
	.st13{fill:#E5CDFB;}
</style>
<g>
	<defs>
		
			<rect id="SVGID_1_" x="-61.9" y="54.3" transform="matrix(0.4637 -0.886 0.886 0.4637 -74.1984 167.2155)" width="325.9" height="181.3"/>
	</defs>
	<clipPath id="SVGID_00000154384137961208473390000008573465578263733154_">
		<use xlink:href="#SVGID_1_"  style="overflow:visible;"/>
	</clipPath>
	<g style="clip-path:url(#SVGID_00000154384137961208473390000008573465578263733154_);">
		<path class="st1" d="M88.2,206.4l-6.8-25.8l0,0.1l-25.1,9.1c0,0-21.6,8.7-28.3,23.5c-11.3,25.4-3.3,75.6-3.3,75.6l0-0.1
			c1.4-0.7,46.1-22.3,60.2-45.7C93.4,229.1,88.2,206.4,88.2,206.4z"/>
		<path class="st2" d="M84.7,207.4L79.4,185l0,0.1L58,193.5c0,0-18.5,7.9-24.4,21.1c-10.1,22.4-4.1,66.1-4.1,66.1l0-0.1
			c1.2-0.6,39.5-20.4,51.9-41C88.7,227.2,84.7,207.4,84.7,207.4z"/>
		<path class="st3" d="M78.9,208.2l-4-15.1l0,0l-14.6,5.3c0,0-12.6,5-16.5,13.7c-6.6,14.8-1.9,44.1-1.9,44.1l0,0
			c0.8-0.4,26.9-13,35.1-26.7C82,221.5,78.9,208.2,78.9,208.2z"/>
		<path class="st4" d="M78,206l-3.3-12.9l0,0l-12.4,4.6c0,0-10.7,4.4-14.1,11.8c-5.7,12.7-1.8,37.7-1.8,37.7l0,0
			c0.7-0.3,22.9-11.3,29.9-23C80.5,217.4,78,206,78,206z"/>
		<path class="st5" d="M43.6,194.3l-1,0.7c-0.2,0.1-0.4,0.3-0.5,0.5c-0.1,0.2-0.2,0.5-0.2,0.7c0,0.2,0.1,0.5,0.2,0.7
			c0.1,0.2,0.3,0.4,0.5,0.5l46.3,24.8c0.2,0.1,0.4,0.2,0.7,0.2c0.2,0,0.5-0.1,0.7-0.2c0.2-0.1,0.4-0.3,0.5-0.5
			c0.1-0.2,0.2-0.4,0.2-0.6l0.1-1.4L43.6,194.3z"/>
		<path class="st6" d="M42.7,195.3L91,221c0.1,0.1,0.2,0.1,0.3,0.1c0.1,0,0.2,0,0.3-0.1c0.1,0,0.2-0.1,0.3-0.2
			c0.1-0.1,0.1-0.2,0.2-0.3l1.1-5.9l-46.1-24.3l-4.6,3.9c-0.1,0.1-0.1,0.2-0.1,0.3c0,0.1,0,0.2,0,0.3c0,0.1,0.1,0.2,0.1,0.3
			C42.5,195.2,42.6,195.3,42.7,195.3z"/>
		<path class="st7" d="M80.1,94.9l-40.7-2.3c-0.3,0-0.6,0-0.9,0.2c-0.3,0.1-0.5,0.3-0.7,0.6l-37.1,48c-0.2,0.3-0.4,0.6-0.4,1
			c0,0.3,0,0.7,0.2,1c0.1,0.3,0.4,0.6,0.7,0.8c0.3,0.2,0.6,0.3,1,0.4l53.1,4.3L80.1,94.9z"/>
		<path class="st7" d="M154.1,133.6l25.1,32.1c0.2,0.3,0.3,0.5,0.4,0.9c0.1,0.3,0,0.6-0.1,0.9l-18.3,57.8c-0.1,0.3-0.3,0.6-0.6,0.9
			c-0.3,0.2-0.6,0.4-0.9,0.5c-0.3,0.1-0.7,0-1-0.1s-0.6-0.3-0.9-0.6L124,184.7L154.1,133.6z"/>
		<path class="st8" d="M163.6,128.6c21.3-54,19.7-77.1,19.7-77.1s-17.7-7.2-24.4-11.5c-0.8-0.5-1.4-0.7-2.9-1.7L69.2,203.9
			l23.5,13.3C92.7,217.2,143.6,179,163.6,128.6z"/>
		<path class="st9" d="M77.3,83.6c32.2-48.3,52.1-60.1,52.1-60.1s16,10.5,23.4,13.5c0.9,0.4,2,0.8,3.2,1.3L69.3,203.9l-24.5-11.6
			C44.8,192.3,47.2,128.7,77.3,83.6z"/>
		<path class="st10" d="M129.3,23.4c0,0,4.7-3.5,19.7-11.8c11.3-6.3,27.3-11.2,27.3-11.2l-21.7,40.3L129.3,23.4z"/>
		<path class="st11" d="M183.3,51.5c0,0,1.2-5.1-0.6-22.2c-1.3-12.9-6.4-28.9-6.4-28.9l-21.7,40.3L183.3,51.5z"/>
		<path class="st6" d="M114.1,117.7c12.4,6.5,27.8,1.7,34.2-10.6c6.5-12.4,1.7-27.7-10.8-34.2c-12.4-6.5-27.8-1.7-34.2,10.6
			C96.9,95.9,101.7,111.2,114.1,117.7z"/>
		<path class="st7" d="M57,226.3c-0.6-0.3-1-0.8-1.3-1.5c-0.2-0.6-0.2-1.3,0.1-1.9l28.9-65c0.4-0.9,1-1.7,1.7-2.4
			c0.7-0.7,1.6-1.2,2.5-1.5c0.9-0.3,1.9-0.4,2.9-0.4c1,0.1,1.9,0.3,2.8,0.8c0.9,0.5,1.6,1.1,2.3,1.8c0.6,0.8,1.1,1.6,1.3,2.6
			c0.3,0.9,0.3,1.9,0.2,2.9c-0.1,1-0.5,1.9-1,2.7l-36.9,60.8c-0.3,0.6-0.9,1-1.5,1.2S57.6,226.6,57,226.3z"/>
		<path class="st12" d="M136.3,75.4l-20.8,39.8c5.3,2.8,11.5,3.3,17.2,1.6c5.7-1.8,10.5-5.7,13.2-11c2.8-5.3,3.3-11.4,1.5-17.1
			C145.6,82.9,141.6,78.2,136.3,75.4z"/>
		<path class="st13" d="M136.6,75.6l-20.8,39.8c-5.3-2.8-9.3-7.5-11.1-13.2c-1.8-5.7-1.3-11.9,1.5-17.1c2.8-5.3,7.5-9.2,13.2-11
			C125.2,72.2,131.3,72.8,136.6,75.6z"/>
	</g>
</g>
</svg>
