<?xml version="1.0" encoding="utf-8"?>
<!-- Generator: Adobe Illustrator 26.0.3, SVG Export Plug-In . SVG Version: 6.00 Build 0)  -->
<svg version="1.1" id="Layer_1" xmlns="http://www.w3.org/2000/svg" xmlns:xlink="http://www.w3.org/1999/xlink" x="0px" y="0px"
	 viewBox="0 0 789 779" style="enable-background:new 0 0 789 779;" xml:space="preserve">
<style type="text/css">
	.st0{fill:#F2E6FD;}
	.st1{fill:#FFFFFF;}
	.st2{fill:#FFDCB8;}
	.st3{fill:#FED7CB;}
	.st4{fill:#F4F2F5;}
	.st5{fill:#FA7349;}
	.st6{fill:none;stroke:#540C97;stroke-width:2;}
	.st7{fill:#FFEBAA;}
	.st8{fill:#FFD039;}
	.st9{fill:none;stroke:#FA7349;stroke-width:2;}
	.st10{fill:#22BA87;}
	.st11{fill:#FFCA1C;}
	.st12{fill:#FA5F2F;}
	.st13{fill:#11001C;}
	.st14{fill:#540C97;}
	.st15{fill:#440C78;}
	.st16{fill:#FDE2C4;}
	.st17{fill:#C48EF6;}
	.st18{fill:none;stroke:#DFBCFF;stroke-linecap:round;}
	.st19{fill:#B277E9;}
	.st20{fill:#FFC300;}
	.st21{fill:none;stroke:#D1760B;stroke-linecap:round;}
	.st22{fill:none;stroke:#A56BDA;stroke-linecap:round;}
	.st23{fill:none;stroke:#7C40B5;}
	.st24{fill:#EB5223;}
	.st25{fill:#181C23;}
	.st26{fill:#208261;}
	.st27{fill:#58A188;}
	.st28{fill:#CC510C;}
	.st29{fill:none;stroke:#FCBD99;stroke-linecap:round;}
	.st30{fill:#E8B40A;}
	.st31{fill:none;stroke:#F9E8B2;stroke-linecap:round;}
	.st32{fill:#D9D9D9;}
	.st33{fill:none;stroke:#FFAC92;stroke-linecap:round;}
	.st34{fill:none;stroke:#B12F07;stroke-linecap:round;}
	.st35{fill:none;stroke:#F8F2FE;stroke-width:1.5;stroke-linecap:round;}
	.st36{fill:#DEC0FA;}
	.st37{fill:none;stroke:#F8F2FE;stroke-linecap:round;}
	.st38{fill:#CB9BF7;}
	.st39{fill:#8D5DBA;}
</style>
<g>
	<path class="st0" d="M80,30.7c0-5.4,4.3-9.8,9.7-10l609-19.4c5.6-0.2,10.3,4.3,10.3,10v393.4c0,5.6-4.7,10.2-10.3,10l-609-19.4
		c-5.4-0.2-9.7-4.6-9.7-10V30.7z"/>
</g>
<path class="st1" d="M80,51.5L709,33v371.7c0,5.6-4.7,10.2-10.3,10l-609-17.9c-5.4-0.2-9.7-4.6-9.7-10V51.5z"/>
<path class="st2" d="M641,389c0.4-4.4,14.5-27.5,6-64.5l14-4l23,59C674.3,387.7,640.6,393.4,641,389z"/>
<path class="st2" d="M621.6,380.6c4.5-0.6,6,0.6,7,1.2c0.8,0.5,13.1,1.3,22.9-4.3l-4.5,12.7h-20.9c-7.5,1.2-21.4,0.6-23.4,0.6
	c-2.5,0-3-0.6-2.5-1.8c0.5-1.2,6.5-1.8,9-3C611.6,384.8,617.6,381.2,621.6,380.6z"/>
<path class="st3" d="M369,214h243c5.5,0,10,4.5,10,10v123c0,5.5-4.5,10-10,10H369c-5.5,0-10-4.5-10-10V224
	C359,218.5,363.5,214,369,214z"/>
<path class="st4" d="M409,62h244c5.5,0,10,4.5,10,10v95c0,5.5-4.5,10-10,10H409c-5.5,0-10-4.5-10-10V72C399,66.5,403.5,62,409,62z"
	/>
<path class="st5" d="M440,257h179c5.5,0,10,4.5,10,10v88c0,5.5-4.5,10-10,10H440c-5.5,0-10-4.5-10-10v-88
	C430,261.5,434.5,257,440,257z"/>
<path class="st6" d="M380,248h219c5,0,9,4,9,9v110c0,5-4,9-9,9H380c-5,0-9-4-9-9V257C371,252,375,248,380,248z"/>
<path class="st7" d="M98,91.4c0-4.3,3.4-7.8,7.7-8l361-15.1c4.5-0.2,8.3,3.4,8.3,8v202.3c0,4.5-3.8,8.2-8.3,8l-361-15.1
	c-4.3-0.2-7.7-3.7-7.7-8V91.4z"/>
<path class="st8" d="M177,134.7c0-4.3,3.4-7.8,7.7-8l236-9.4c4.5-0.2,8.3,3.5,8.3,8v122.4c0,4.5-3.8,8.2-8.3,8l-236-9.4
	c-4.3-0.2-7.7-3.7-7.7-8V134.7z"/>
<path class="st9" d="M124.7,94.1l270-10.7c4-0.2,7.3,3,7.3,7v141.4c0,4-3.3,7.2-7.3,7l-270-10.7c-3.8-0.1-6.7-3.2-6.7-7V101.1
	C118,97.3,121,94.2,124.7,94.1z"/>
<circle class="st10" cx="100.8" cy="36.4" r="3.7"/>
<ellipse transform="matrix(7.618772e-02 -0.9971 0.9971 7.618772e-02 69.6918 147.0181)" class="st11" cx="114.2" cy="35.9" rx="3.7" ry="3.7"/>
<ellipse transform="matrix(7.618777e-02 -0.9971 0.9971 7.618777e-02 82.4916 159.9133)" class="st12" cx="127.5" cy="35.4" rx="3.7" ry="3.7"/>
<path class="st13" d="M197,778l-2.5-24l29-1.5c3.2,3.2,6.4,7.9,18,11.5c14.5,4.5,22,10,22,12.5S232,779,227,779
	c-4,0-13.3-3.3-17.5-5v5L197,778z"/>
<path class="st13" d="M73.5,776.5l-2.5-24l29-1.5c3.2,3.2,6.4,7.9,18,11.5c14.5,4.5,22,10,22,12.5s-31.5,2.5-36.5,2.5
	c-4,0-13.3-3.3-17.5-5v5L73.5,776.5z"/>
<path class="st14" d="M70.1,750.9l7.4-283.4l69,18l-39.7,265.8c-0.1,1-1,1.7-2,1.7H72.1C70.9,753,70,752.1,70.1,750.9z"/>
<path class="st15" d="M76,523.5c-0.4-2.8,0.7-33.2,1.5-48l18.5,28l40,52.5l-8,53c-1.8-10.8-6.4-35.5-10-47.5
	C113.5,546.5,76.5,527,76,523.5z"/>
<path class="st14" d="M82.8,510.7c-9.6-21.6-5.5-35.1,0-41.7l107.3,4.9l38.7,279.8c0.2,1.2-0.8,2.3-2,2.3H196
	c-0.9,0-1.6-0.5-1.9-1.4c-6-20.8-38-147.2-50.7-176.3C127,541.1,93.6,535.1,82.8,510.7z"/>
<path class="st16" d="M193.5,285.9L125.2,258l4.4,41.2c20.4,9.2,62.9,27.6,69.4,28c8.1,0.5,20.2-16.7,33.2-36.4
	c11.9-18,39.3-58.9,44.1-60.7c4.8-1.7,8.6-4.5,10.2-8.2c1.8-4.1,0.8-7.4-1.6-8.1c-2.4-0.7-4.7-6.3-4.5-10.4
	c0.2-3.3,12.6-19.6,11.2-20.7c-0.5-2.3-9.3,5.3-15.3,12.3c-7.6,8.7-6.8,14.9-9.4,18.8C264.9,216.9,217.1,263.1,193.5,285.9z"/>
<path class="st14" d="M186.9,273.8l-22.6,76.9l37.7,54.3l43.1-112.6L186.9,273.8z"/>
<path class="st16" d="M205.7,392.8l-4.9-50.9l-29.2,2.1l2.1,35.1l11.8,52.9c2.1,6.9,14.6,12.4,25,5.5c5.5-3.6,30.6-108.6,34.1-112.1
	c3.5-3.4,7-7.9,9.7-15.1c2.1-5.5,3.5-10.3,0.7-17.2c-2.9-7.1-7-5.5-10.4-5.5h0c-2.2,0-4.9,0-6.3,0.7c-1.1,0.5-0.2,0.7,0.7,1.4
	c2.1,0.7,4.2,0.7,6.3,2.8c0.7,0.7-1.4,5.5-4.2,12.4c-5.1,12.6-5.5,14.5-7.6,17.2C225.9,331.6,212.7,370.4,205.7,392.8z"/>
<path class="st17" d="M164.6,277.9l-22-8.3l-56.4,40.6c6,21.8,19.2,47.5,14.4,72.3c-3.4,17.6-30.9,63.3-24.7,96.4
	c1.4,7.7,29.4,4,37.8,6.9c25.1,8.6,40,2.6,75.8-5.8c2.6-0.6,4.3-3.1,3.8-5.8l-5.4-30.4l-13.8-64.7l30.9-4.8
	c-2.3-15.6-4.8-48.9-11-64C188.9,297.1,173.1,282.9,164.6,277.9z"/>
<path class="st18" d="M170.9,305.3c-2.1,4.8,2.8,9.6,2.8,17.9c0,5.2-9,6.9-11.1,4.8c-2.1-2.1-0.7-3.4,0.7-4.8c2.1-2.1,6.2-3.4,5.6,0
	s-5.6,14.4-13.2,21.3c-7.6,6.9-15.3,17.9-14.6,33s14.6,18.6,14.6,31c0,9.9-18.3,33-25,40.6"/>
<path class="st16" d="M160.1,218.6c-2.3-1.4-6.2-3.9-8.8-6.2c-4.8-4.2-11.3-14.6-15.6-21.4L100.3,240l42.1,11.8
	c3.6-3.2,10.9-8.3,12.9-13.8c1.3-3.5,0.7-11.5-0.7-15.2L160.1,218.6z"/>
<path class="st19" d="M170,352l7.5,36.5l8.6,45.1l9,41.9c-1.5,5-5,4.7-7.5,5.5c-3.1,1-9.5,2.2-12.5,3L170,352z"/>
<path class="st20" d="M80.5,416.3c-28.9,9.6-66.7-11.7-70.2-41.3c-2.9-25.2,14.4-26.8,15.8-44.7c2.7-35.5,14.4-39.2,30.3-44
	c37.4-11.4,8.3-25.5,14.5-68.1c4.1-28.2,22.2-37.5,34.4-39.9c13.8-2.8,26.1,0.7,34.4,11.7c5.6,7.4-4.8,15.1-8.3,18.6
	c-3.4,3.4-11.7,10,2.8,26.8c12.4,14.5,41.3,22.7,27.5,68.1c-12.8,42.3-69.5,13.8-61.2,49.6C108.7,388.8,101.1,409.4,80.5,416.3z"/>
<path class="st16" d="M125,214.2c2.7-1,6.2,1.7,8.2,2.9l2.7,15.7c-4.8,1.4-7.5,1.7-10.3,0c-3.4-2.1-5.5-5.7-5.5-10
	C120.2,218.5,122.9,214.9,125,214.2z"/>
<path class="st21" d="M144.5,189.7c1.4-3.2,2.1-9.8-6.2-10.3c-10.3-0.7-49.6,16.5-46.1,40c3.4,23.4,21.3,42.7,13.1,59.3
	c-8.3,16.5-41.5,23.9-55.1,38.6c-9,9.6-15.8,28.9-13.8,45.5c2.1,16.5,10.3,37.9-9.6,49.6"/>
<path class="st22" d="M125.1,489c-4,3.5-11.3,13.9-6.5,23.5c6,12,53.5,14,60.5,49s33.5,172,33.5,178.5s-8,8.5-8,3s29.5-4,30-3
	c1.4,2.8,5,12.5,0.5,13s-42,2-43,0c-1.6-3.3-3-8.5-2.5-10c1-3,7-1.5,9.5-1.5"/>
<path class="st23" d="M119.5,522c-2.5-3,0-8.1,3-9c3.5-1,13,0.5,6.5,11c-6.5,10.5-32.5,28-32,47s-5,166.9-6,171c-1.5,6.5-6-0.8-6-5
	c0-6,32-3.5,32-1.5s1,10,0.5,11.5c-0.9,2.8-50.5,5.5-52.5,2.5c-1.4-2.1-1-12.2,0.5-14.5c1-1.5,6.8-1.2,9.5-1"/>
<path class="st24" d="M642,394c26,0,34-5.7,48.5-7c-12.7,9.2-41.6,31.4-42,33s-2.5,96-4,126.5L619,548c-3.5-36.5-12-117-5-148
	C616,391.4,631.5,394,642,394z"/>
<path class="st25" d="M644.5,563v-16.5l-25,1.5l-5.5-3c-4.5-2-21.5-3.3-23.5,3c-3,9.5,5,15,15,15H629l2.5-3.5l2.5,3.5H644.5z"/>
<path class="st25" d="M600.3,585.3v-16.5l-25,1.5l-5.5-3c-10.3-4.8-21.8-2.1-23.8,4.2c-3,9.5,5.5,13.8,15.3,13.8h23.5l2.5-3.5
	l2.5,3.5H600.3z"/>
<rect x="664" y="441" class="st26" width="82" height="79"/>
<path class="st27" d="M664,443.5l82-2.5l-12-15.5h-70V443.5z"/>
<path class="st27" d="M664,520l-13-12l0.2-79l12.8,4.8V520z"/>
<path class="st12" d="M742.5,406c0-9.6-10.3-25.7-15.5-32.5c-16.7,2.7-49.8,9.6-49,16c1,8-77.5,16.5-84.5,46.5
	c-2.4,10.5-16,104.5-18,134.5H600c4.3-24.5,23.9-101.4,25.5-113c2-14.5,44-13.5,74.5-15.5S742.5,418,742.5,406z"/>
<path class="st2" d="M698,268.5c-5.6-2-14.2-13.5-14.5-19.5c-4.2,2.7-11.4,8.9-11,12.5s-3.5,10.5-3,14l8.5,1
	C684.7,275,703.6,270.5,698,268.5z"/>
<path class="st20" d="M723.6,277.6c-5.4-4.1-16.1-8.2-20.6-9.7l-9.5-2.5c-2.3,2.6-12.4,6-19,6.5c-7,0.5-1-6-4-4.5
	c-3.7,1.8-16,14-16,27.5c0,13.9,0,7.2,0,21.5c0,14.3,4.5,19.9,4.5,33.1s-3.8,26-4.5,31c-1.1,8.5,10.5,11.9,20,10
	c13-2.6,66.3,22.5,65,4.5c-0.5-7-2.5,6-4.5-32.6l-8-30.5h26c-1.5-7.5-3-11-4-15.5s-2.4-8.6-6-17.5
	C737.7,285.8,730,282.4,723.6,277.6z"/>
<path class="st20" d="M645.5,325l9.5-35l8,38.5L645.5,325z"/>
<path class="st2" d="M652,229.9c0.4-4.4,1-21.8,3.5-25.5l36.5-4l7.5,29.5l-9,24.5c-5.7,1.2-12.1,9-18.5,9c-8,0-8-4.5-13-11.5
	c-4-5.6-5.2-9.3-3.5-13.5h-7C648.5,237.4,651.6,234.3,652,229.9z"/>
<path class="st28" d="M644.3,205c2.1-6.6,7.3-8.5,25-12.2c20.8-3.8,33.3,6.6,38.5,17c7.6,15.2,7.3,22.6,1,33
	c-4.1,6.7-23.9,20.7-23.9,17.9l-3.1-14.1c0-1.9,10.6-3,11.4-7.5c1-5.7,0-9.4-4.2-10.4c-3.3-0.8-7.3,8.5-7.3,4.7
	c-0.3-4.7-1.5-13.6-3.1-11.3c-2.1,2.8-22.9-0.9-29.1-2.8C643.3,217.2,642.6,210.5,644.3,205z"/>
<path class="st29" d="M661,200.9c3-1,4-7.5,0-9.5c-2.7-1.4-7,0.5-7.5,5s0,9.5,5.5,10.5s19.5-5.5,26-4s19,10,18.5,23
	s-5.1,21.4,0,23.5c5,2,7-2,9-4.5"/>
<path class="st30" d="M727,331.9l-9-25c0.5,7.3,1.6,24.2,2,33c0.5,11,4,8.6,0,28.1c-1.7,8.2-9.4,22.7-15,28.5c6.5,2,13.4,3.4,16.5,4
	c11,2,14.5,1.5,18-2c1.5-1.5-1.4-14.1-2.5-20c-0.5-3-1-9-2-16.1L727,331.9z"/>
<path class="st31" d="M692.5,284.6c2.5,1.5,5.8,4.2,8.1,7.7c1.7,2.5,3.8,9.4,0.9,10.4c-3.1,1.1-5.6-4.6-5.5-6.2
	c0.4-5.3,7.6,0.3,10,3.9c2.3,3.4,5.2,12.9,1.9,19.1c-5,9.5-7.3,19.2-5,26.5c5.5,17.1,17.3,26.7,18,28.5"/>
<path class="st2" d="M758.5,389.5c4.8-6-1.5-41.5-7.5-58l-24,0.5c1,4,1.4,5.5,1.5,6.5c0.7,5.2,7.5,31.5,7.5,33.5s-46.5,9.1-51,6.5
	c-7-4-12-1-17,2l0,0c-3,1.8-20,6.5-18,8.5s6,0,12,0c9,0,11-1.5,15.5,0c1.4,0.5,5,0.5,14,0.5S752.5,397,758.5,389.5z"/>
<path class="st32" d="M598,389h89.5c1.4,0,2.5,1.1,2.5,2.5l0,0c0,1.4-1.1,2.5-2.5,2.5H599c-0.6,0-1-0.4-1-1V389z"/>
<path class="st32" d="M598,389l-28-64.7c-0.5-1.3,0-2.7,1.3-3.3l0,0c1.3-0.6,2.7,0,3.3,1.3L604,389H598z"/>
<path class="st33" d="M725.5,401c3.3,7.7,4.2,23.3-19,24.5c-29,1.5-85.5-7-93.5,6.5c-6.4,10.8-17.7,90.8-22.5,127.5
	c-1,4-3.9,4.3-5,2c-2-4,5.5-5,8.5-5s15,0,15.5,1s-0.5,10.5-1.5,11s-36.5,0-37-1.5s0-9,0.5-10c0.4-0.8,6.8-0.8,10-0.5"/>
<path class="st34" d="M635,449c-1.8,9.5-5.5,31.6-5.5,44s2,31.8,2.5,40.5c-0.2,1.8-2,7.7-4,6.5c-2.5-1.5-2-5.5,7.5-6s11-2,13-0.5
	c0.7,0.5,1,9,0,9.5s-30.5,4-31.5,3s-2-8-1-9c0.8-0.8,5-1,7-1"/>
<path class="st34" d="M642,394.5c-6.7,0.8-19.8,4.7-20,7.5c-0.5,6,13-9,14,1c1.2,12-0.5,43.5-1,46"/>
<ellipse class="st0" cx="386" cy="637" rx="53" ry="14"/>
<path class="st17" d="M421,542.6c1.7,7.7-2.7,28.9-6.2,38.8l-32.8,11.8c-11.2-4.7-34.9-16.3-39.8-25.4c-6.2-11.4-5.7-33.5-8-40
	c-2.3-6.5-20.3-14.5-24.4-23.7c-5.3-11.7-0.7-30-3.6-36.4c-5.6-12.6-12-19.8-13.5-28.6c-1.8-10.9,7.2-18.3,17.6-18.9
	c8.9-0.5,18.3,3.9,27.3,14.2c9,10.4,8.9,21.9,11.9,27.1c2.9,5.2,22.9,13.7,29.3,19.8c6.4,6.1,6.4,23.8,10.1,30.9
	C392.6,519.3,416.2,520.3,421,542.6z"/>
<path class="st35" d="M383.8,582c-0.4-3.7-1.5-9.3-3.2-15.6 M311.1,437.6c1.7,6,3.4,9.8,7.5,16.8 M339.4,455c-1,2.5-3,9.1-3.3,16.3
	c-0.3,7.1,0.3,9.9,0.7,10.4 M336.8,481.7c-4.7-6.5-8.5-11.7-10.3-14.5c-0.1-0.2-0.2-0.4-0.4-0.6 M336.8,481.7
	c3.3,4.5,7,9.7,10.8,15.2 M323.2,435.9c-0.5,1.3-1.8,4.7-2.7,8.4c-0.8,3.6-1.6,8.3-1.9,10.1 M318.6,454.4c1.9,3.2,4.3,7.1,7.5,12.2
	 M321.5,488.6c3.9,0.3,7.5,0.9,12.3,2.9c3.1,1.3,10.5,4.1,13.8,5.3 M347.6,496.9c5.4,7.8,10.9,16.3,15.6,24.5 M367.8,479.7
	c-1.7,2.3-5.4,9-6.1,17.4c-0.7,8.4,0.7,19.8,1.4,24.4 M363.1,521.4c2.3,4,4.4,8,6.2,11.8c1.8,3.9,3.5,8.2,5.1,12.7 M337,524.2
	c7.8,1.9,13.4,3.2,21.8,8.3c4,2.4,12.1,10,15.6,13.5 M374.5,546c2.4,6.8,4.6,14,6.2,20.4 M393.9,531.9c-1.3,1.5-4.6,6.6-7.1,14.6
	c-2.6,8.1-5.1,16.6-6.1,19.8 M309.5,462c1.9,0.2,6.7,1.5,8.1,1.9c1.4,0.3,6.3,2,8.6,2.8"/>
<path class="st36" d="M391.4,565.9c4.5,4.8-1.3,15.3-4.8,20c-4.8,1-16.5,2.8-24.8,1.8c-10.4-1.2-15.6-1.2-19.2-6.7
	c-4.8-7.3-2.3-8.2-5.6-15.7c-2.4-5.5-13.6-5.5-16.8-12.1c-1.8-3.8,0-10.3-1.6-16.4c-0.8-3-6.9-9.2-8-10.9c-2.4-3.6-1.6-6.7-0.8-8.5
	c0.8-1.8,4-5.5,11.2-5.5c6.4,0,12.8,4.2,16,6.7c3.2,2.4,5.6,9.1,8.8,12.1c3.2,3,11.2,3.6,16,6.7c4.8,3,7.2,13.3,9.6,16.4
	C373.8,556.8,385.8,559.9,391.4,565.9z"/>
<path class="st37" d="M384,585c-1.8-1.2-4.2-2.9-6.8-4.8 M319.6,521c1.5,1.1,5.1,3.9,8.1,7 M347.3,537.1c-0.8,1-2.4,3.7-2.4,6.6
	c0,2.9,0.7,5.6,1.1,6.6 M346,550.3c2.5,3.2,4.9,6.3,7.1,9c0.6,0.8,1.3,1.6,2.1,2.4 M346,550.3c-2.4-3-4.8-6.1-7-9 M363.6,550.9
	c-0.8,2.2-2.3,7.4-1.6,10.8c0.7,3.3,2.2,7.4,2.9,9 M364.9,570.6c4.1,3.4,8.5,6.8,12.3,9.6 M364.9,570.6c-3.7-3.1-7.2-6.2-9.8-9
	 M346,577.8c2.4-0.4,9-1,16.9,0c7.8,1,12.9,2,14.4,2.4 M327.8,554.5c2.7,0,9.3,0.4,13.9,1.8c4.6,1.4,10.9,4.2,13.5,5.4 M322.1,537.1
	c1.1,0,3.9,0.1,6.5,0.6c2.6,0.5,8,2.6,10.3,3.6 M338.9,541.3c-4.4-5.6-8.4-10.5-10.3-12.6c-0.3-0.3-0.5-0.5-0.8-0.8 M318,525.8
	c0.8,0,2.9,0.1,4.9,0.6c2,0.5,4.1,1.2,4.9,1.6"/>
<path class="st36" d="M366.9,526.4c-5.3,7.6,1.6,24,5.7,31.3c5.7,1.6,19.4,4.4,29.2,2.8c12.3-1.9,18.4-1.9,22.6-10.4
	c5.7-11.4,2.7-12.8,6.6-24.7c2.8-8.5,16-8.5,19.8-19c2.2-6,0-16.1,1.9-25.6c0.9-4.7,8.1-14.4,9.4-17.1c2.8-5.7,1.9-10.4,0.9-13.3
	c-0.9-2.8-4.7-8.5-13.2-8.5c-7.6,0-15.1,6.6-18.9,10.4c-3.8,3.8-6.6,14.2-10.4,19c-3.8,4.7-13.2,5.7-18.9,10.4
	c-5.7,4.7-8.5,20.9-11.3,25.6C387.7,512.2,373.5,516.9,366.9,526.4z"/>
<path class="st37" d="M376,557c2.1-2,4.8-4.5,7.9-7.6 M451.1,456c-1.7,1.7-5.9,6.2-9.5,11 M418.8,481.5c0.9,1.6,2.9,5.9,2.9,10.4
	s-0.8,8.8-1.2,10.4 M420.4,502.3c-2.9,5-5.7,9.9-8.3,14.2c-0.7,1.2-1.5,2.5-2.4,3.8 M420.4,502.3c2.7-4.7,5.5-9.6,8.2-14.2
	 M399.8,503.2c1,3.5,2.7,11.7,1.9,17c-0.8,5.3-2.6,11.6-3.4,14.2 M398.3,534.3c-4.8,5.4-9.9,10.7-14.4,15.1 M398.3,534.3
	c4.3-4.8,8.4-9.8,11.4-14.2 M420.4,545.7c-2.8-0.6-10.5-1.5-19.7,0c-9.1,1.5-15,3.1-16.8,3.8 M441.6,508.9c-3.2,0-10.8,0.6-16.2,2.8
	c-5.3,2.3-12.7,6.6-15.7,8.5 M448.2,481.5c-1.3,0-4.6,0.2-7.6,0.9s-9.3,4.1-12.1,5.7 M428.6,488.1c5.2-8.9,9.8-16.6,12.1-19.8
	c0.3-0.4,0.6-0.9,1-1.3 M453,463.6c-1,0-3.4,0.2-5.7,0.9c-2.3,0.8-4.8,2-5.7,2.5"/>
<path class="st38" d="M365.2,558.7c0.9,6.7,10.4,22.3,16,29.3h29.6c7.6-7,23.1-23.1,24.5-31.8c1.7-10.9-5.1-28.5-5.1-34.4
	s12-17.5,12.7-26c0.8-10.9-8-24.3-7.6-30.2c0.8-11.7,3.9-19.3,2.5-26.8c-1.7-9.2-11-12.6-19.4-10.1c-7.3,2.2-13.5,8.4-17.7,19.3
	c-4.2,10.9-0.8,20.1-1.7,25.1c-0.8,5-14.4,17.6-17.7,24.3s1.7,20.9,0.8,27.6S362.7,539.4,365.2,558.7z"/>
<path class="st35" d="M386,578c1.9-2.7,4.3-6.8,6.8-11.8 M419.9,445c-2.2,4.8-3.3,8.2-4.6,15 M429,471.8c-2.1,1-7.3,4.2-11.6,8.7
	c-4.3,4.4-5.5,6.6-5.5,7.1 M411.9,487.5c0.6-6.8,1-12.2,1.4-15c0.8-5.3,1.4-9.4,2-12.6 M411.9,487.5c-0.4,4.7-0.9,10.1-1.5,15.7
	 M429,450.5c-1.1,0.5-4,2-6.6,3.9c-2.6,1.9-5.8,4.5-7.1,5.5 M397.6,483.6c2.5,2.4,4.6,4.7,6.6,8.7c1.3,2.5,4.7,8.4,6.2,11
	 M410.4,503.2c-0.9,8-2,16.5-3.6,24.4 M434,503.2c-2.5,0.5-8.8,2.8-14.1,7.9c-5.3,5-10.9,13.1-13.1,16.5 M406.9,527.6
	c-0.8,3.9-1.6,7.6-2.6,11c-1,3.5-2.3,7.3-3.8,11 M387.7,515c4.1,5.5,7.2,9.4,9.9,17.3c1.3,3.8,2.4,13.1,2.8,17.3 M400.4,549.7
	c-2.3,5.7-5,11.5-7.5,16.5 M421.6,551.2c-1.8,0.3-6.9,1.7-13.2,5.5c-6.4,3.8-13,7.9-15.5,9.4"/>
<path class="st36" d="M390.4,561.6c-3.7,5.4,1.1,17,4,22.1c4,1.1,13.7,3.1,20.7,2c8.7-1.3,13-1.4,16-7.4c4-8,1.9-9.1,4.7-17.4
	c2-6,11.3-6,14-13.4c1.5-4.2,0-11.4,1.3-18.1c0.7-3.3,5.7-10.2,6.7-12.1c2-4,1.3-7.4,0.7-9.4c-0.7-2-3.3-6-9.3-6
	c-5.4,0-10.7,4.7-13.3,7.4c-2.7,2.7-4.7,10-7.3,13.4c-2.7,3.3-9.3,4-13.3,7.4c-4,3.3-6,14.7-8,18.1C405,551.5,395,554.9,390.4,561.6
	z"/>
<path class="st37" d="M397,583c1.5-1.4,3.4-3.2,5.5-5.3 M449.7,512c-1.2,1.2-4.1,4.3-6.7,7.7 M427,529.9c0.7,1.1,2,4.1,2,7.3
	s-0.6,6.2-0.9,7.3 M428.1,544.5c-2,3.5-4,7-5.8,10c-0.5,0.8-1.1,1.7-1.7,2.7 M428.1,544.5c1.9-3.3,3.9-6.8,5.7-10 M413.7,545.2
	c0.7,2.4,1.9,8.2,1.3,11.9c-0.5,3.7-1.8,8.2-2.4,10 M412.6,567.1c-3.4,3.8-7,7.5-10.1,10.6 M412.6,567.1c3-3.4,5.9-6.9,8-10
	 M428.1,575c-1.9-0.4-7.4-1.1-13.8,0s-10.5,2.2-11.8,2.7 M443,549.2c-2.2,0-7.6,0.4-11.3,2c-3.7,1.6-8.9,4.6-11,6 M447.7,529.9
	c-0.9,0-3.2,0.1-5.3,0.7c-2.1,0.5-6.5,2.9-8.5,4 M433.9,534.6c3.6-6.3,6.8-11.7,8.5-13.9c0.2-0.3,0.4-0.6,0.7-0.9 M451,517.3
	c-0.7,0-2.4,0.1-4,0.7s-3.3,1.4-4,1.7"/>
<path class="st39" d="M358,587.9c-0.5-3.1,1.8-5.9,4.9-5.9H413c3.1,0,5.5,2.8,4.9,5.9l-8.2,46c-0.4,2.4-2.5,4.1-4.9,4.1h-33.6
	c-2.4,0-4.5-1.7-4.9-4.1L358,587.9z"/>
</svg>
