<svg width="786" height="580" viewBox="0 0 786 580" fill="none" xmlns="http://www.w3.org/2000/svg">
<path d="M20.0376 405.988L500.981 573.716C511.066 577.233 522.136 572.205 526.122 562.295L688.57 158.442C693.385 146.472 685.774 133.143 673.019 131.205L160.453 53.3473C151.373 51.9681 142.521 56.9504 138.988 65.4282L8.16199 379.411C3.7346 390.037 9.16842 402.197 20.0376 405.988Z" fill="white"/>
<path d="M40 303V26.1039C40 13.9178 50.8052 4.56429 62.8656 6.3103L751.38 105.988C766.691 108.205 773.796 126.222 764.118 138.292L430.736 554.104C425.488 560.649 416.714 563.224 408.762 560.552L297 523" stroke="#FFC300" stroke-width="12" stroke-linecap="round"/>
</svg>
